<svg xmlns="http://www.w3.org/2000/svg" viewBox="0 0 23.327 23.327"><defs><style>.a{fill:#6e2626;}</style></defs><path class="a" d="M7,18.661a2.333,2.333,0,1,0,2.333,2.333A2.34,2.34,0,0,0,7,18.661ZM0,0V2.333H2.333l4.2,8.864L4.9,14a4.144,4.144,0,0,0-.233,1.166A2.34,2.34,0,0,0,7,17.495h14V15.162H7.464a.251.251,0,0,1-.233-.233v-.117l1.05-1.983h8.631a2.127,2.127,0,0,0,1.983-1.166l4.2-7.581a.642.642,0,0,0,.233-.583A1.1,1.1,0,0,0,22.16,2.333H4.9L3.849,0ZM18.661,18.661a2.333,2.333,0,1,0,2.333,2.333A2.34,2.34,0,0,0,18.661,18.661Z"/></svg>