<svg id="Lag_1" data-name="Lag 1" xmlns="http://www.w3.org/2000/svg" viewBox="0 0 656.1 534.1"><defs><style>.cls-1{fill:none;stroke:#000;stroke-linecap:round;stroke-linejoin:round;stroke-width:6px;}</style></defs><title>logo-mobile</title><path id="_Kurve_" data-name="&lt;Kurve&gt;" d="M281.61,384.19a.85.85,0,0,0-1-.51q-10.36,1.61-22.3-3.38a115.77,115.77,0,0,1-24.15-13.51q-5-3.51-9.9-7.54c-1.91-1.55-3.8-3.15-5.7-4.83q-5.88-5-11.44-10.4c-1.13-1.1-2.23-2.19-3.34-3.31q-13.34-13.07-23.92-25.5-10.44-12.69-15.94-19.45,16.53-29.59,36.28-58.39a402.15,402.15,0,0,1,41.73-52.09,2.65,2.65,0,0,0,.65-1.08l-.13-.69-.1-.46q-1.31-3.31-6.5-10.62c-3.36-5-7.83-7.4-13.46-7.07q-4.49.44-10.07,4.18-5.54,4-12,13.4-4.78,6.67-10.42,15.46T178,217.26q-11.67,19.07-24.46,42.4-12.82,23.12-24.47,47.67-9.4,20.48-17.3,40.95-2.4,6.36-4.49,12.54-4,11.87-7,23.17c-.32,1.19-.62,2.37-.93,3.55l.07-3.12q.3-11.23.75-21.92.83-19.17,2.24-36.68,2.35-28.41,5.68-52,6-43.91,13-70.13,6.74-26.18,8.72-32.56a2.25,2.25,0,0,0,.06-1.9,3.69,3.69,0,0,0-1.17-1.45,47.74,47.74,0,0,0-8.52-3.29q-6-1.64-15.66-.66l-1,.21c-3.65.75-8.3,2.86-14,6.41Q80.06,176.65,69,185.56q-6,4.78-11.91,10.28-6.12,5.3-12,10.79Q36.25,215.08,28.67,223a155.26,155.26,0,0,0-12.52,13.74,29.14,29.14,0,0,0-5.41,9,14.06,14.06,0,0,0-1.22,6.94,13.16,13.16,0,0,0,.2,2.1,11.62,11.62,0,0,0,4.25,7,33.55,33.55,0,0,0,7.25,4.5,1.82,1.82,0,0,0,1.76.12,2.68,2.68,0,0,0,1.45-1.49,159.74,159.74,0,0,1,13.78-23.77q7.94-11.63,16.38-21.69,5.71-6.41,11.07-12.25c3.62-3.76,7.13-7.24,10.55-10.48Q85.4,188,91.58,182.92l6-5Q85,238.18,81.75,290.13q-3.12,49.35-3,82.37c0,1.17,0,2.31,0,3.44q.14,13.44.56,23.49c.08,2.45.2,4.74.32,6.88.49,8.18.87,13.66,1.15,16.48a2.73,2.73,0,0,0,.58,1.79A6,6,0,0,0,82.69,426q11.3,6.08,13,6.94l2,1,.93.3.16-.28c.41-.08.71-.46.86-1.13q1.13-3.08,3.58-9.31,2.51-6,6-14.57,4.85-12,11.93-27.87,2.29-5.09,4.79-10.59c1.23-2.69,2.48-5.41,3.78-8.16q8.9-19,19.92-40.05c2.13,2.59,5,5.91,8.77,9.92q5.42,6.31,12.75,13.41a307.88,307.88,0,0,0,33,27,135.44,135.44,0,0,0,41.75,20.7q16.53,5,24.74.26c5.63-3.2,9.27-6,11-8.41A.82.82,0,0,0,281.61,384.19Z"/><path id="_Sammensat_kurve_" data-name="&lt;Sammensat kurve&gt;" d="M290.81,333.42q-2.49-12.38-.05-36t.88-31.43c-.72-3.52-4-5.88-10-7.07a32.18,32.18,0,0,0-12.68-.05q-18.27,3.66-41.8,36-22.47,30.87-20.05,49.2c.09.57.18,1.14.28,1.69A28.27,28.27,0,0,0,212,356.35q3.4,4.93,7.8,4c1.52-.31,3-.69,4.5-1.14a58.48,58.48,0,0,0,21.92-12.53,69.16,69.16,0,0,0,18.41-25.2,34.2,34.2,0,0,0,.62,4.17c.31,1.54.65,3.2,1,5a86.85,86.85,0,0,0,4.89,16.67q2.9,6.81,7.11,6a55.68,55.68,0,0,1,5.77-.56,54.18,54.18,0,0,0,6.2-.65,5.64,5.64,0,0,0,3.77-3,11.38,11.38,0,0,0,1.56-5.21,30.38,30.38,0,0,0-2.45-5.12A20,20,0,0,1,290.81,333.42Zm-30-24.26q-14.26,26.73-22.24,28.35c-1.26.26-2.05-.46-2.39-2.15Q234,324.6,247.82,299.48t22.85-26.91c1.54-.31,2.42.06,2.63,1.15Q275.06,282.42,260.8,309.16Z"/><path id="_Sammensat_kurve_2" data-name="&lt;Sammensat kurve&gt;" d="M365.57,305.45l-3.25-1q-.21,0-7.75,4.89a25.5,25.5,0,0,1-8.24,3.58,8.85,8.85,0,0,1-7.28-1.39,10.39,10.39,0,0,1-4-6.6,35.91,35.91,0,0,1-.32-9.73,115.14,115.14,0,0,1,2.52-15.06l9.88-2q4.41-.89,8.29-7t2.92-11l-1.74-3.23a17.07,17.07,0,0,0-6.11-.55,69,69,0,0,0-7.53,1.15l6-24.36c.52-1.7,1.11-3.56,1.71-5.59a10.37,10.37,0,0,0,.64-4.43,23.83,23.83,0,0,0-2.56-7.23,4.16,4.16,0,0,0-4.82-2.25,9.77,9.77,0,0,0-3.8,1.72c-.26.2-1.29,1.12-3.14,2.78a25.47,25.47,0,0,1-4.57,2.83,26.2,26.2,0,0,0-3.81,2.19q-2.38,2.41-6,18.15c-1.15,5.16-2.32,10.58-3.51,16.21-.16.67-.4,1.67-.71,3a17.06,17.06,0,0,1-1.15,3.44c-.46,1-2.89,4-7.26,9-3.2,3.68-4.85,7-5,10.08a4.68,4.68,0,0,0,4.12,2l4.2-.85Q312,292.16,310.73,300c-1.16,7.24-1.47,12.16-.95,14.76a31,31,0,0,0,9.37,17.2q7.24,6.65,16.47,4.79,9.67-1.95,19.63-9.91,11.3-9,12.23-18.45Z"/><path id="_Sammensat_kurve_3" data-name="&lt;Sammensat kurve&gt;" d="M414.89,200.05q-.7-3.45-6.23-7.09t-8.49-3.08c-1.66.34-4.29,3.06-7.85,8.16s-5.2,8.41-4.89,9.93q.38,1.83,5.48,6t6.86,4.83a9.38,9.38,0,0,0,4.7,0c3.65-.75,6.5-3,8.57-6.86A17.36,17.36,0,0,0,414.89,200.05Zm13.49,77.71-2.53-.69c-2,1.68-4.5,5.21-7.48,10.58-.95,1.8-3.06,5.8-6.32,12q.51-6.06,8.42-42.74,3-14.2,2.48-17a48.68,48.68,0,0,0-3.37-11.25c-2.14-4.17-4.9-5.93-8.27-5.26q-16.57,3.34-30.31,28.43T371,295.77a9.52,9.52,0,0,0,1.82,4.15,3.29,3.29,0,0,0,3.43,1.22c1.95-.39,3-2,3.2-4.7.23-6.74,1.9-14.39,5-23q5.46-15.16,12.19-16.53l1.95,1q-.79,12.34-5.36,39.51-5.77,35.29-6.83,44.1-2.71,23.46-.53,34.22c.49,2.44,2.15,5.23,4.94,8.32s5.28,4.42,7.37,4a4.69,4.69,0,0,0,3.57-2.87c.71-1.57,1.35-3.06,1.95-4.44q2.91-7.28,4.63-19.31,2.52-17.93,2.93-20.15,1.78-8.5,10.17-31.9,7.71-21.35,8.5-29.39Z"/><path id="_Sammensat_kurve_4" data-name="&lt;Sammensat kurve&gt;" d="M520.5,287.11q-2.52-12.4-.05-36t.86-31.45q-1.05-5.26-9.94-7.06a32.63,32.63,0,0,0-12.7-.07q-18.25,3.69-41.78,36T437.1,299.39A28.67,28.67,0,0,0,441.66,310q3.4,4.93,7.8,4,14.08-2.84,26.42-13.69a68.93,68.93,0,0,0,18.41-25.19,34.49,34.49,0,0,0,.62,4.17q.46,2.28,1,5a86.83,86.83,0,0,0,4.89,16.67c1.93,4.54,4.31,6.53,7.11,6,1-.19,2.9-.38,5.79-.57a55.5,55.5,0,0,0,6.2-.64,5.67,5.67,0,0,0,3.76-3,11.64,11.64,0,0,0,1.58-5.21,33.65,33.65,0,0,0-2.45-5.12A19.56,19.56,0,0,1,520.5,287.11Zm-30-24.26q-14.29,26.73-22.26,28.35c-1.26.26-2.05-.46-2.39-2.15q-2.18-10.78,11.67-35.88t22.85-26.93c1.54-.29,2.43.08,2.63,1.15Q504.76,236.1,490.48,262.85Z"/><path id="_Sammensat_kurve_5" data-name="&lt;Sammensat kurve&gt;" d="M556.59,131.39A11.81,11.81,0,0,0,554,125.7a5,5,0,0,0-5-1.39c-1.26.26-4.65,3.34-10.15,9.22-2.66,2.76-4.23,4.71-4.73,5.83a8.54,8.54,0,0,0-.11,4.92l1.27,5.23q1,5-5,13.54c-4,5.66-5.92,9.12-5.67,10.34.39,2,1.71,2.76,4,2.3q6.93-1.4,16.69-13.62,8.38-10.52,11.62-19.3a16.39,16.39,0,0,0,.4-5.08A38.27,38.27,0,0,0,556.59,131.39Z"/><path class="cls-1" d="M126.26,142.34l.38.1.38.12a65.85,65.85,0,0,1,13,5.24l1.27.72,1.17.87a26.79,26.79,0,0,1,8.24,10.18,25.21,25.21,0,0,1,.88,18.88c-.83,2.78-3,10.37-8.25,31l0,.16c-2.51,9.48-5,21-7.32,34.43,7.69-13.91,15.25-26.95,22.47-38.73,4.47-7.22,8.44-13.51,12.21-19.34,4.14-6.41,7.7-11.69,10.88-16.13,5.78-8.47,11.47-14.66,17.39-18.91l.3-.22.31-.21c6.88-4.61,13.81-7.28,20.6-7.95l.45,0,.45,0c.8,0,1.59-.07,2.37-.07,12.77,0,23.88,6,31.32,17,4.67,6.61,7.36,11.17,9,15.22l.69,1.74.56,2.58,1.17,6.11-1.34,5.05a25.65,25.65,0,0,1-6,10.84l-.21.22a381.09,381.09,0,0,0-39.33,49.13c-9.74,14.2-18.95,28.67-27.49,43.19l5,6.11a192.47,192.47,0,0,1,11.89-18.28c19.67-27,37.41-41.28,55.85-45a53.35,53.35,0,0,1,10.58-1.05,57.73,57.73,0,0,1,11,1.08,43,43,0,0,1,13.17,4.8c.36-1.63.71-3.24,1.06-4.83,3.84-16.87,6.76-24,12-29.3l.84-.85.92-.76a42.29,42.29,0,0,1,8-4.92l.62-.33c2.05-1.84,2.7-2.39,3.51-3l.34-.26.35-.25a32.59,32.59,0,0,1,12.64-5.53,28.45,28.45,0,0,1,5.56-.56A26.82,26.82,0,0,1,365.57,200c1.59-5.44,4.65-10.44,8-15.15,5.45-7.82,11.95-15.41,22.08-17.45a27.69,27.69,0,0,1,5.4-.53c6.55,0,13.18,2.27,20.27,7,9,5.89,14.37,13.2,16.09,21.7a40.15,40.15,0,0,1-.39,17.78,39,39,0,0,1,3,4.92l.13.26a54.06,54.06,0,0,1,3.54,9.48c17.53-22.41,33.7-34.56,50.46-37.94a54.27,54.27,0,0,1,10.59-1c.84,0,1.69,0,2.54.06A26.27,26.27,0,0,1,502.15,178c-2.19-10.7,3-19.11,9.45-28.21l.13-.18-.09-.37-.1-.52c-1.34-6.83-.79-13.08,1.62-18.56l.07-.15c1.7-3.79,4.32-7.34,9-12.25,4.95-5.29,8.8-9.05,12.52-11.65a256.26,256.26,0,0,0-422.21,34.46A55.37,55.37,0,0,1,126.26,142.34Z"/><path class="cls-1" d="M587.49,305.77C573,303,562.8,293.5,560.14,280.29c-1.7-8.55-.31-17.68,4.24-28a45.7,45.7,0,0,1,9.78-14.6,31.51,31.51,0,0,1-4.43-10.66c-2.72-13.71,3.64-27,10.15-37a254.35,254.35,0,0,0-9-24.27,121.66,121.66,0,0,1-7.59,10.59c-10.07,12.62-19.5,19.52-29.65,21.72a30,30,0,0,1,10.2,17c1,5.25,1.93,14.33-.53,38.31-1.61,15.51-1.13,23.73-.53,27.74l.1.18a53,53,0,0,1,4.17,9l1.36,4.09-.22,4.3a34.46,34.46,0,0,1-4.53,15.38,28.52,28.52,0,0,1-19.18,14.21l-.25,0a73.7,73.7,0,0,1-9,1c-2.07.14-3,.24-3.32.28a27.62,27.62,0,0,1-4.89.44h0a27.74,27.74,0,0,1-20.27-8.91A78.11,78.11,0,0,1,454,336.59a29.18,29.18,0,0,1-17-1.65c-2,6-2.8,9.24-3.16,10.87-.38,2.23-2.07,14.29-2.72,18.89-1.43,10-3.41,18-6,24.63l-.11.29-.2.46c-.61,1.42-1.27,2.95-2,4.54a27.56,27.56,0,0,1-20,16,27.05,27.05,0,0,1-5.28.52h0c-8.66,0-16.59-3.9-23.59-11.59-5.72-6.33-9.13-12.6-10.47-19.22-1.56-7.74-1.84-17.59-.84-30.47a65,65,0,0,1-22.38,9.4,43,43,0,0,1-8.48.86,39.85,39.85,0,0,1-15.93-3.3,36.37,36.37,0,0,1-1.79,3.61,29,29,0,0,1-12.61,12,23.81,23.81,0,0,1-.17,24.69l-.4.65-.44.63c-3.76,5.31-9.57,10.1-18.3,15.07a42.28,42.28,0,0,1-21.39,5.36,73.52,73.52,0,0,1-21.36-3.54,159,159,0,0,1-48.62-24.09,331.72,331.72,0,0,1-35.38-29l-.06-.06q-2.45,5.05-4.73,9.93c-1.28,2.72-2.49,5.35-3.68,8q-2.47,5.42-4.74,10.47c-4.81,10.83-8.62,19.71-11.58,27l-.88,2.15a255.85,255.85,0,0,0,205.82,103.6C463.7,523.28,570,429,588.72,306,588.31,305.91,587.89,305.85,587.49,305.77Z"/><path id="_Sammensat_kurve_6" data-name="&lt;Sammensat kurve&gt;" d="M638.5,240.64c-1-4.9-3.5-9.91-7.52-15.08s-8.53-10.64-13.49-16.5a16.69,16.69,0,0,1,0-6.21,18.25,18.25,0,0,0,5.23,3.12,10.19,10.19,0,0,0,5.5.21c3.36-.68,5.17-3.6,5.44-8.75a45.67,45.67,0,0,0-1.1-11.94,5.76,5.76,0,0,0-4.16-4.42,12.84,12.84,0,0,0-6.67-.55q-8.18,1.64-19.7,17.7t-9.86,24.3q.74,3.67,10.5,14.1a49.28,49.28,0,0,1,12.53,24.21c.49,2.44-.1,3.84-1.78,4.18q-3.37.67-9.3-6.59T594,252q-4.83,1-8.65,9.63t-2.73,14.14q1.21,6,9.16,7.46a31.6,31.6,0,0,0,12.17-.29,47,47,0,0,0,25.28-14.41Q641.49,255.55,638.5,240.64Z"/></svg>