<svg id="Lag_1" data-name="Lag 1" xmlns="http://www.w3.org/2000/svg" viewBox="0 0 618 372"><defs><style>.cls-1{fill:#6e2626;}.cls-2{fill:#f4d19b;}.cls-3{fill:#58ae5c;}.cls-4{fill:#eaae48;}</style></defs><title>logo</title><path class="cls-1" d="M576.81,128.08c-9.25-5.77-21.8-10.58-34.43-13.18-13.31-2.74-26.07-2.55-37.4.43a84,84,0,0,0-18.73-59.72,91.39,91.39,0,0,0-58-32.89c-13.87-2.1-28-3.83-42.15-5.17A35.32,35.32,0,0,0,372.27,19a60.43,60.43,0,0,0-17.88-3.79c-8.29-.44-16.91-.75-25.62-.91h-.13A35.78,35.78,0,0,0,315,16.81a60.86,60.86,0,0,0-18.12-2.42c-8.49.2-17.1.54-25.64,1A35.36,35.36,0,0,0,257.72,19a62.49,62.49,0,0,0-18.14-1.07c-12.93,1.29-26,2.91-38.7,4.83-25.09,3.79-47.52,17.5-61.55,37.63A84.87,84.87,0,0,0,124,109.65q-5.62.95-11.17,2a33.09,33.09,0,0,0-15.13,7A33.32,33.32,0,0,0,81,117.89c-8.47,1.8-17,3.72-25.47,5.73a33,33,0,0,0-19.28,12.93c-11.21,15.69-3.38,35,.52,51.92Q40.7,205.3,44.95,222q2.12,8.37,4.34,16.71c1.17,4.41,4,10.2,4,14.78a44.24,44.24,0,0,1,.14,4.87c.08,6.89,1.91,13.63,3.73,20.27,1.32,4.83,2.66,9.72,5.06,14.12,6,11.12,17.85,17.1,30.25,17.1a56.56,56.56,0,0,0,12.72-1.48,50.55,50.55,0,0,0,8.92-2.9A31.11,31.11,0,0,0,118,305a37.66,37.66,0,0,0,1.05,7.78L121.72,324a55.4,55.4,0,0,0,54,42,56.76,56.76,0,0,0,11.38-1.15,636.29,636.29,0,0,1,255,0A57.58,57.58,0,0,0,453.46,366a55.38,55.38,0,0,0,54-42l2.68-11.12a37.23,37.23,0,0,0,1.05-8c.77.23,1.55.43,2.35.61l4.86,1.08a31.3,31.3,0,0,0,3.88.63,32.74,32.74,0,0,0,3.67,1.1l5,1.17a32.67,32.67,0,0,0,7.54.89,33.64,33.64,0,0,0,30.17-19.93,74.25,74.25,0,0,0,6.42-31.8c-.14-4.56-2.38-9.93-1.92-14.32.35-3.36,3.39-6,5.09-8.74a52.29,52.29,0,0,0,7.22-34.43c-1.06-7.38-1-12,1.43-19s4.38-14,4.9-21.35C592.71,147.76,588.21,135.18,576.81,128.08ZM337.58,244.43c-.06-.09-.12-.19-.17-.28l.34-.32C337.68,244,337.63,244.23,337.58,244.43Z"/><path class="cls-2" d="M115.27,178.84q20,20.46,38.79,41.6a1.21,1.21,0,0,1-.8,2q-13.23,2-26.42,4.42a1.29,1.29,0,0,1-1.19-.39q-12.48-13.92-25.51-27.55a1.38,1.38,0,0,0-2.14.27q-3.23,5.55-6.38,11.12a1.15,1.15,0,0,0-.13.81l4.35,20.59a1.24,1.24,0,0,1-1,1.44q-12,2.55-24,5.39a1.25,1.25,0,0,1-1.52-.88l-19.9-83.52a1.3,1.3,0,0,1,1.07-1.49q13-3.07,26-5.84a1.3,1.3,0,0,1,1.6.89l6.52,30.87a1.37,1.37,0,0,0,2.52.2q9.94-18.93,20.72-37.68a1.45,1.45,0,0,1,1-.68q15-2.75,30.13-5.09c1.14-.18,2,.87,1.37,1.76q-13.14,20.06-25.24,40.4A1.11,1.11,0,0,0,115.27,178.84Z"/><path class="cls-2" d="M217.17,202.84q-13.43,1.23-26.84,2.8a1.29,1.29,0,0,0-1.08.83q-1.91,5.39-3.77,10.78a1.28,1.28,0,0,1-1.06.84q-12.5,1.55-25,3.4a1.21,1.21,0,0,1-1.38-1.56q16.52-46.83,37-93.13l1.39-.15q29.54,41,55.33,83.51a1.21,1.21,0,0,1-1,1.81q-12.56.76-25.1,1.82a1.28,1.28,0,0,1-1.2-.59q-3-4.9-6-9.78A1.29,1.29,0,0,0,217.17,202.84Zm-20-14.75q4.9-.53,9.8-1a1.22,1.22,0,0,0,1-1.78c-2.81-4.84-6.49-11.31-7.51-14.07l-.27,0c-.43,2.92-2.69,10-4.44,15.32A1.22,1.22,0,0,0,197.18,188.09Z"/><path class="cls-2" d="M322.81,123q-.07,9.58-.14,19.16a1.29,1.29,0,0,1-1.36,1.2q-11.27-.07-22.55.09a1.28,1.28,0,0,0-1.33,1.23q.49,32.14,1,64.27a1.24,1.24,0,0,1-1.25,1.23q-12.28.2-24.56.69a1.24,1.24,0,0,1-1.32-1.15l-2.64-64.23a1.28,1.28,0,0,0-1.4-1.15q-11.27.48-22.52,1.18a1.29,1.29,0,0,1-1.42-1.12l-1.22-19.13a1.3,1.3,0,0,1,1.3-1.29q39-2.43,78-2.2A1.3,1.3,0,0,1,322.81,123Z"/><path class="cls-2" d="M331.66,190.66a1.28,1.28,0,0,1,1.7-1.12,28.72,28.72,0,0,0,7.24,1.31c6.3.15,9.93-2.17,10.13-8l2-59.2a1.3,1.3,0,0,1,1.42-1.16q13.3.46,26.6,1.22a1.3,1.3,0,0,1,1.3,1.28l-3.5,59.5c-1.37,21.92-14.26,28.42-33.4,27.86a42.06,42.06,0,0,1-13-2.18,1.2,1.2,0,0,1-.79-1.14Z"/><path class="cls-2" d="M451.15,207.13q-13.39-1.72-26.81-3.11a1.29,1.29,0,0,0-1.23.58q-3,4.84-6,9.7a1.28,1.28,0,0,1-1.22.58q-12.53-1.2-25.07-2.11a1.21,1.21,0,0,1-1-1.82q26.26-42.12,56.29-82.86l1.39.16q19.91,46.49,35.9,93.55a1.21,1.21,0,0,1-1.4,1.54q-12.46-2-24.94-3.69a1.28,1.28,0,0,1-1-.84q-1.86-5.43-3.77-10.86A1.29,1.29,0,0,0,451.15,207.13Zm-16.31-18.75q4.9.55,9.79,1.13A1.22,1.22,0,0,0,446,188c-1.69-5.33-3.87-12.45-4.27-15.37l-.27,0c-1.05,2.76-4.8,9.18-7.67,14A1.21,1.21,0,0,0,434.84,188.38Z"/><path class="cls-2" d="M565.59,214.5c-4,16.36-19.15,22.88-42.93,18.06-9.92-2-19.77-5.55-26.44-9.5a1.2,1.2,0,0,1-.58-1.24l3.7-21.4a1.3,1.3,0,0,1,2-.74,68.68,68.68,0,0,0,24.26,10.72c8.16,1.63,12.84,1.27,13.51-1.85.76-3.59-5-6.6-14.39-12.19-14.17-8.4-24.1-16-21.28-32.7,2.7-16.3,20-24.82,43.65-19.95,9.53,2,19,5.57,25.26,9.49a1.21,1.21,0,0,1,.59,1.29l-4.66,20.07a1.36,1.36,0,0,1-2.19.57c-5.18-4.17-12.92-7.61-21-9.3s-13.26-.56-13.94,2.92c-.62,3.13,4.89,6.44,13.87,12.09C559.27,189.87,569.43,198.53,565.59,214.5Z"/><path class="cls-3" d="M96.58,271.34c1.11,5.1-2.07,9-9.13,10.6a25.3,25.3,0,0,1-7.73.61,1.22,1.22,0,0,1-1.08-.92l-1.13-4.74a1.23,1.23,0,0,1,1.43-1.47,18.06,18.06,0,0,0,6.54-.14c2.38-.55,3.58-1.25,3.36-2.22s-2.16-1.23-5.34-1.66c-4.79-.65-8.34-1.67-9.57-6.78s2.27-9.41,8.89-10.92a23.22,23.22,0,0,1,6.95-.56,1.22,1.22,0,0,1,1.1.94l1,4.41A1.24,1.24,0,0,1,90.4,260a15.13,15.13,0,0,0-5.38.27c-2.27.52-3.5,1.47-3.25,2.55s2.07,1.24,5.11,1.72C91.73,265.26,95.49,266.36,96.58,271.34Z"/><path class="cls-3" d="M116.79,271.36,110,272.73a1.22,1.22,0,0,0-.95.91l-.57,2.38a1.22,1.22,0,0,1-.94.91l-5.49,1.16a1.21,1.21,0,0,1-1.44-1.48q3.73-14.13,7.8-28.25l.39-.08q9.24,11.42,18.16,23a1.21,1.21,0,0,1-.75,1.92l-5.51,1.06a1.22,1.22,0,0,1-1.22-.46l-1.49-2A1.23,1.23,0,0,0,116.79,271.36Zm-6.38-4,4-.8a47.51,47.51,0,0,1-3-4.61l-.08,0A47.43,47.43,0,0,1,110.4,267.36Z"/><path class="cls-3" d="M137.69,261.17l1.49,8.45a1.21,1.21,0,0,1-1,1.4l-5.33,1a1.21,1.21,0,0,1-1.42-1l-4.81-26.15.39-.07q8,4.17,15.9,8.46a1.24,1.24,0,0,0,1.84-1.26l-1.41-8.45a1.23,1.23,0,0,1,1-1.4l5.53-.9a1.23,1.23,0,0,1,1.43,1l4.18,26.26-.34.05q-7.76-4.38-15.66-8.64A1.23,1.23,0,0,0,137.69,261.17Z"/><path class="cls-3" d="M161.5,265.95l-3.78-24.72a1.23,1.23,0,0,1,1.05-1.38q4.3-.65,8.61-1.27c10.11-1.44,17,3.63,18,11.4s-4.28,14.34-14.09,15.74q-4.19.6-8.38,1.24A1.21,1.21,0,0,1,161.5,265.95Zm5.34-19.3,1.66,11.48a1.22,1.22,0,0,0,1.39,1l.32,0c5.32-.76,7.48-4.42,7-8s-3.58-6.59-9-5.82l-.32,0A1.22,1.22,0,0,0,166.84,246.65Z"/><path class="cls-3" d="M224.41,232a1.21,1.21,0,0,1,1.27,1.63q-5.41,13.55-10.49,27.14l-.42,0q-3-4.75-6.11-9.47a1.24,1.24,0,0,0-2.18.23q-2,5.27-4,10.54l-.42,0q-7.8-12.24-15.93-24.36A1.21,1.21,0,0,1,187,236l6.44-.78a1.25,1.25,0,0,1,1.23.6q1.8,3.08,3.59,6.17c1,1.69,1.86,3.24,2.53,4.62h.08c.38-1.5,1.25-3.63,1.76-5.1q1.42-3.81,2.86-7.62l.39,0q2.21,3.42,4.39,6.86c1.18,1.91,2.1,3.23,2.78,4.62h.08c.36-1.49.86-3.18,1.51-5q1.1-3.39,2.22-6.78a1.25,1.25,0,0,1,1.08-.84Z"/><path class="cls-3" d="M238.85,258.35l-5.58.43a1.21,1.21,0,0,1-1.31-1.1l-2-24.92a1.23,1.23,0,0,1,1.15-1.3l5.73-.45a1.23,1.23,0,0,1,1.33,1.11L240,257.06A1.21,1.21,0,0,1,238.85,258.35Z"/><path class="cls-3" d="M258.16,229.06a17.21,17.21,0,0,1,7.4,1.06,1.21,1.21,0,0,1,.79,1.07l.21,4.61A1.23,1.23,0,0,1,265,237a15.15,15.15,0,0,0-5.58-.73c-5,.27-7.42,3.82-7.2,7.43a6.8,6.8,0,0,0,7.52,6.58,17.91,17.91,0,0,0,6-1.35,1.22,1.22,0,0,1,1.72,1l.22,4.7a1.22,1.22,0,0,1-.71,1.16,21.5,21.5,0,0,1-7.61,1.75A14.22,14.22,0,0,1,244,244.24C243.46,236.42,249.24,229.55,258.16,229.06Z"/><path class="cls-3" d="M290,254.6l-.2-8.17a1.22,1.22,0,0,0-1.26-1.17l-6.81.2a1.22,1.22,0,0,0-1.19,1.25l.27,8.17a1.21,1.21,0,0,1-1.17,1.25l-5.59.21a1.21,1.21,0,0,1-1.26-1.16l-1-25a1.23,1.23,0,0,1,1.2-1.26l5.74-.21a1.23,1.23,0,0,1,1.29,1.16l.26,7.75a1.22,1.22,0,0,0,1.28,1.16l6.85-.2a1.22,1.22,0,0,0,1.21-1.24l-.19-7.75a1.23,1.23,0,0,1,1.22-1.24l5.78-.12a1.23,1.23,0,0,1,1.27,1.18l.41,25a1.21,1.21,0,0,1-1.2,1.23l-5.63.11A1.21,1.21,0,0,1,290,254.6Z"/><path class="cls-3" d="M315,241.7a1,1,0,0,0,.24-1.38,8.49,8.49,0,0,1-1.77-5.56c0-3.77,3.93-7.24,8.7-7.21s8.67,3.56,8.6,7.33a7.77,7.77,0,0,1-4.09,6.82,1,1,0,0,0-.22,1.47l.48.5a1,1,0,0,0,1.71-.62s0,0,0,0a1,1,0,0,1,1-.92l4.74.08a1,1,0,0,1,1,.93,13,13,0,0,1-1.57,6.8,1,1,0,0,0,.11,1.18l2.82,3a1,1,0,0,1-.74,1.62l-5.65-.1a1,1,0,0,1-.7-.31l-.24-.25a1,1,0,0,0-1.15-.2,13.86,13.86,0,0,1-6.09,1.24c-7.81-.05-11.13-3.82-11.15-7.94C311,245.36,312.63,243.21,315,241.7Zm9.32,8.1-3.93-4.06a1,1,0,0,0-1.49.07,2.65,2.65,0,0,0-.62,1.71c0,1.41,1.27,2.59,4,2.61A6.16,6.16,0,0,0,324.29,249.8ZM321,237.54a1,1,0,0,0,1.34.17,3.12,3.12,0,0,0,1.68-2.23,2,2,0,0,0-3.91,0A3.07,3.07,0,0,0,321,237.54Z"/><path class="cls-3" d="M368.6,249.16c-.28,5.21-4.36,8.11-11.55,7.8a25,25,0,0,1-7.57-1.46,1.22,1.22,0,0,1-.79-1.17l.16-4.87a1.23,1.23,0,0,1,1.76-1,17.82,17.82,0,0,0,6.3,1.6c2.43.1,3.76-.26,3.81-1.25.05-1.14-1.74-1.76-4.68-3-4.43-1.89-7.55-3.82-7.38-9.07s4.65-8.47,11.4-8.18a23,23,0,0,1,6.81,1.3,1.22,1.22,0,0,1,.81,1.19l-.23,4.51a1.23,1.23,0,0,1-1.75,1,15,15,0,0,0-5.23-1.16c-2.31-.1-3.74.49-3.79,1.59s1.65,1.74,4.44,3C365.56,242,368.88,244.07,368.6,249.16Z"/><path class="cls-3" d="M388,254.54l-6.87-.47a1.22,1.22,0,0,0-1.15.63l-1.18,2.15a1.22,1.22,0,0,1-1.15.63l-5.57-.33a1.21,1.21,0,0,1-1-1.8q7.31-12.64,14.95-25.17l.39,0q5.85,13.46,11.36,27a1.21,1.21,0,0,1-1.23,1.65l-5.57-.44a1.22,1.22,0,0,1-1-.77l-.9-2.31A1.22,1.22,0,0,0,388,254.54Zm-3.23-5.42.34,0a1.21,1.21,0,0,0,1.25-1.57,30.94,30.94,0,0,1-1-3.52h-.08a31.3,31.3,0,0,1-1.51,3.35A1.21,1.21,0,0,0,384.76,249.12Z"/><path class="cls-3" d="M402.15,258.08l2.16-24.91a1.23,1.23,0,0,1,1.35-1.09l5.72.52a1.23,1.23,0,0,1,1.13,1.32l-1.72,18.22a1.22,1.22,0,0,0,1.11,1.32l7,.7a1.21,1.21,0,0,1,1.09,1.33l-.44,4.27a1.21,1.21,0,0,1-1.33,1.07q-7.48-.77-15-1.43A1.21,1.21,0,0,1,402.15,258.08Z"/><path class="cls-3" d="M439.17,259.54l-6.84-.82a1.22,1.22,0,0,0-1.18.57l-1.28,2.09a1.22,1.22,0,0,1-1.18.57l-5.56-.61a1.21,1.21,0,0,1-.9-1.85q7.94-12.25,16.22-24.38l.39,0q5.17,13.74,10,27.53a1.21,1.21,0,0,1-1.31,1.59l-5.55-.72a1.22,1.22,0,0,1-1-.82l-.79-2.35A1.22,1.22,0,0,0,439.17,259.54Zm-3-5.58.34,0a1.21,1.21,0,0,0,1.33-1.51,30.56,30.56,0,0,1-.85-3.57H437a30.86,30.86,0,0,1-1.67,3.27A1.21,1.21,0,0,0,436.21,254Z"/><path class="cls-3" d="M474,241.59l-.66,4.24a1.23,1.23,0,0,1-1.41,1l-4.68-.71a1.22,1.22,0,0,0-1.41,1l-2.68,18.11a1.21,1.21,0,0,1-1.38,1l-5.58-.8a1.22,1.22,0,0,1-1-1.36L457.68,246a1.22,1.22,0,0,0-1.06-1.37l-4.69-.64a1.23,1.23,0,0,1-1.07-1.36l.56-4.25a1.23,1.23,0,0,1,1.4-1q10.07,1.35,20.12,2.9A1.23,1.23,0,0,1,474,241.59Z"/><path class="cls-3" d="M478.36,242.28a1.23,1.23,0,0,1,1.43-1q4.16.67,8.32,1.37c6.36,1.07,11.17,4.31,10.17,9.78a5.19,5.19,0,0,1-2.6,3.74,1.16,1.16,0,0,0-.24,1.84,6.35,6.35,0,0,1,1.83,5.69c-1.05,5.73-6.3,7.24-13.12,6.08q-4.35-.74-8.71-1.44a1.21,1.21,0,0,1-1-1.38Zm6.71,7.5-.37,2.24a1.22,1.22,0,0,0,1,1.39l1,.17c1.54.26,3-.07,3.29-1.79s-1-2.56-2.5-2.82l-1-.17A1.22,1.22,0,0,0,485.07,249.78Zm-1.6,9.58L483,262a1.22,1.22,0,0,0,1,1.39l1.58.27c1.53.26,3.16-.08,3.48-2s-1.1-2.78-2.63-3l-1.59-.27A1.22,1.22,0,0,0,483.47,259.35Z"/><path class="cls-3" d="M516,272l-6.78-1.35a1.22,1.22,0,0,0-1.22.47l-1.44,2a1.22,1.22,0,0,1-1.22.48l-5.51-1a1.21,1.21,0,0,1-.75-1.92q8.88-11.6,18.08-23.06l.39.08q4.12,14.1,7.9,28.22a1.21,1.21,0,0,1-1.43,1.48l-5.5-1.15a1.22,1.22,0,0,1-.94-.9l-.61-2.41A1.23,1.23,0,0,0,516,272Zm-2.53-5.79.34.07a1.21,1.21,0,0,0,1.44-1.4,30.59,30.59,0,0,1-.58-3.63l-.08,0a30.75,30.75,0,0,1-1.92,3.13A1.21,1.21,0,0,0,513.46,266.25Z"/><path class="cls-3" d="M543.13,280.91q-.87-3.87-1.76-7.74a1.23,1.23,0,0,0-.93-.92l-.28-.06a1.22,1.22,0,0,0-1.47.9l-1.34,6a1.22,1.22,0,0,1-1.46.91l-5.3-1.17a1.22,1.22,0,0,1-.94-1.44l5.3-24.44a1.23,1.23,0,0,1,1.48-.91q4.63,1,9.26,2.07c6.85,1.56,10.94,5.81,9.42,12.1a8.22,8.22,0,0,1-5.58,6.3,1.18,1.18,0,0,0-.77,1.44q1.09,3.85,2.15,7.7a1.21,1.21,0,0,1-1.46,1.48l-5.4-1.27A1.23,1.23,0,0,1,543.13,280.91Zm-1.76-19.7-.76,3.37a1.22,1.22,0,0,0,.94,1.45l1.77.4c1.6.37,3.21,0,3.72-2.15s-.8-3.19-2.41-3.56l-1.78-.4A1.22,1.22,0,0,0,541.37,261.21Z"/><path class="cls-4" d="M455.14,341a704.65,704.65,0,0,0-280.87,0c-13.24,2.68-26.52-5.27-29.74-18.32l-2.77-11.53a7.4,7.4,0,0,1,5.85-8.75,748,748,0,0,1,334.19,0,7.4,7.4,0,0,1,5.85,8.75l-2.77,11.53C481.66,335.71,468.38,343.67,455.14,341Z"/><path class="cls-4" d="M472.38,116.81a705.86,705.86,0,0,0-315.35,0,7.25,7.25,0,0,1-8.92-6.16A55.68,55.68,0,0,1,158,72.93C167.12,59.8,182.24,50,200.31,47.26q19.42-2.93,38.93-4.86c.89-.17,21.17-1.69,24.71,14.88a4.26,4.26,0,0,0,4.48,3.28l.47,0a4.15,4.15,0,0,0,4-4.79,25.3,25.3,0,0,0-4.57-10.56c-1.62-2.14-.05-5.1,2.81-5.27q12.93-.74,25.87-1c.9-.1,21.22-.09,23.5,16.7a4.26,4.26,0,0,0,4.22,3.61h.47a4.15,4.15,0,0,0,4.33-4.48,25.28,25.28,0,0,0-3.77-10.87c-1.45-2.26.33-5.1,3.2-5q12.95.24,25.88.92c.9,0,21.18,1.51,22.19,18.43A4.26,4.26,0,0,0,381,62.07l.47,0A4.15,4.15,0,0,0,386.09,58a25.3,25.3,0,0,0-2.93-11.12c-1.27-2.36.71-5.05,3.57-4.79q21.23,2,42.36,5.19c33.53,5,55.56,33.86,52.2,63.39A7.25,7.25,0,0,1,472.38,116.81Z"/></svg>