<svg id="Lag_1" data-name="Lag 1" xmlns="http://www.w3.org/2000/svg" viewBox="0 0 524.97 469.48"><title>dddd</title><line id="_Kurve_" data-name="&lt;Kurve&gt;" x1="231.26" y1="-2.42" x2="237.35" y2="3.75"/><g id="_Gruppe_" data-name="&lt;Gruppe&gt;"><g id="_Gruppe_2" data-name="&lt;Gruppe&gt;"><path id="_Sammensat_kurve_" data-name="&lt;Sammensat kurve&gt;" d="M212.29,198.08a.44.44,0,0,0-.49-.3,21.2,21.2,0,0,1-11.37-2.45,59.71,59.71,0,0,1-12-7.72q-2.45-2-4.85-4.2c-.93-.86-1.86-1.74-2.78-2.67q-2.87-2.78-5.56-5.72l-1.62-1.81q-6.45-7.16-11.5-13.89t-7.59-10.52q9.46-14.7,20.54-28.9a207.41,207.41,0,0,1,23.15-25.48,1.37,1.37,0,0,0,.37-.54l0-.36,0-.24a31.44,31.44,0,0,0-3-5.68,7.39,7.39,0,0,0-6.7-4.07,11.71,11.71,0,0,0-5.32,1.83,27.59,27.59,0,0,0-6.58,6.52q-2.67,3.28-5.86,7.62t-6.74,9.33q-6.62,9.44-13.94,21t-14.12,23.76q-5.5,10.24-10.22,20.53-1.44,3.2-2.71,6.31-2.45,6-4.34,11.7c-.2.6-.4,1.2-.59,1.8l.14-1.61q.51-5.77,1.09-11.26,1-9.84,2.33-18.81,2.12-14.55,4.59-26.58,4.5-22.41,8.92-35.69T141,83.55a1.16,1.16,0,0,0,.09-1,1.9,1.9,0,0,0-.55-.78,24.62,24.62,0,0,0-4.28-2,22.76,22.76,0,0,0-8-.84l-.54.07a23.74,23.74,0,0,0-7.41,2.85Q115.17,84.8,109.17,89q-3.25,2.27-6.46,4.91t-6.53,5.17q-4.79,4.07-8.94,7.93a80.08,80.08,0,0,0-6.88,6.67,15,15,0,0,0-3.07,4.44,7.25,7.25,0,0,0-.85,3.53,6.79,6.79,0,0,0,0,1.09,6,6,0,0,0,2,3.75A17.31,17.31,0,0,0,82,129.07a.94.94,0,0,0,.9.12,1.38,1.38,0,0,0,.79-.72,82.39,82.39,0,0,1,7.85-11.79Q96,110.94,100.7,106q3.14-3.11,6.09-6c2-1.82,3.9-3.5,5.77-5.06q5-4.22,8.34-6.63l3.24-2.4a414.26,414.26,0,0,0-11.73,57.27q-3.18,25.31-4.2,42.31c0,.6-.07,1.19-.1,1.77q-.36,6.92-.46,12.11c0,1.26,0,2.45-.06,3.55,0,4.23,0,7.06.06,8.52a1.41,1.41,0,0,0,.24.94,3.08,3.08,0,0,0,.66.76q5.62,3.49,6.46,4l1,.59.47.18.09-.14c.21,0,.38-.21.48-.55q.68-1.55,2.14-4.68t3.56-7.31q2.88-6,7-14,1.34-2.55,2.81-5.3c.72-1.35,1.45-2.7,2.21-4.08q5.19-9.5,11.54-20c1,1.4,2.41,3.2,4.2,5.39s3.77,4.72,6.14,7.31a158.79,158.79,0,0,0,16.11,15,69.86,69.86,0,0,0,20.83,12q8.35,3.11,12.73.92c3-1.47,5-2.8,5.92-4A.42.42,0,0,0,212.29,198.08Z"/></g><g id="_Gruppe_3" data-name="&lt;Gruppe&gt;"><path id="_Sammensat_kurve_2" data-name="&lt;Sammensat kurve&gt;" d="M218.64,172.24q-.89-6.45,1.13-18.55t1.46-16.15c-.26-1.84-1.88-3.16-4.9-4a16.6,16.6,0,0,0-6.52-.43q-9.52,1.3-22.67,17.18Q174.58,165.5,175.24,175c0,.3.06.59.09.88a14.58,14.58,0,0,0,2,5.63q1.59,2.64,3.89,2.33c.79-.11,1.57-.26,2.35-.44a30.16,30.16,0,0,0,11.68-5.75,35.67,35.67,0,0,0,10.28-12.39,17.64,17.64,0,0,0,.18,2.17c.11.8.23,1.67.36,2.63a44.79,44.79,0,0,0,2,8.74q1.27,3.6,3.47,3.29a28.72,28.72,0,0,1,3-.1,27.94,27.94,0,0,0,3.21-.14,2.91,2.91,0,0,0,2-1.44,5.87,5.87,0,0,0,1-2.63,15.67,15.67,0,0,0-1.1-2.71A10.29,10.29,0,0,1,218.64,172.24ZM204,158.79q-8.2,13.3-12.36,13.88c-.66.09-1-.3-1.16-1.18q-.78-5.61,7.15-18.1t12.63-13.12c.8-.11,1.25.11,1.32.67Q212.17,145.48,204,158.79Z"/></g><g id="_Gruppe_4" data-name="&lt;Gruppe&gt;"><path id="_Sammensat_kurve_3" data-name="&lt;Sammensat kurve&gt;" d="M258,160.23l-1.64-.62q-.11,0-4.14,2.27a13.15,13.15,0,0,1-4.36,1.58,4.56,4.56,0,0,1-3.7-1,5.36,5.36,0,0,1-1.83-3.53,18.52,18.52,0,0,1,.15-5,59.39,59.39,0,0,1,1.78-7.67l5.15-.71q2.3-.32,4.49-3.36t1.86-5.56L255,135a8.8,8.8,0,0,0-3.13-.48,35.59,35.59,0,0,0-3.91.35l3.88-12.35c.32-.86.68-1.8,1.06-2.82a5.35,5.35,0,0,0,.47-2.26,12.29,12.29,0,0,0-1.09-3.8,2.15,2.15,0,0,0-2.41-1.31,5,5,0,0,0-2,.77c-.14.09-.7.54-1.71,1.33a13.14,13.14,0,0,1-2.45,1.31,13.51,13.51,0,0,0-2,1q-1.3,1.16-3.65,9.16c-.76,2.62-1.53,5.37-2.33,8.23l-.46,1.53a8.8,8.8,0,0,1-.7,1.74,39.94,39.94,0,0,1-4,4.39c-1.76,1.79-2.72,3.46-2.88,5a2.41,2.41,0,0,0,2.06,1.17l2.19-.3q-1,4-1.9,8.06c-.83,3.69-1.14,6.21-1,7.57a16,16,0,0,0,4.27,9.16,9.25,9.25,0,0,0,8.32,3A24,24,0,0,0,252,170.93q6.1-4.25,6.88-9.11Z"/></g><g id="_Gruppe_5" data-name="&lt;Gruppe&gt;"><path id="_Sammensat_kurve_4" data-name="&lt;Sammensat kurve&gt;" d="M286.78,107.55q-.25-1.8-3-3.85t-4.27-1.86c-.87.12-2.31,1.44-4.3,3.95s-2.94,4.16-2.83,5q.14,1,2.63,3.29a15.93,15.93,0,0,0,3.38,2.7,4.84,4.84,0,0,0,2.42.16,6.42,6.42,0,0,0,4.63-3.26A9,9,0,0,0,286.78,107.55ZM291.24,148l-1.28-.43a21.08,21.08,0,0,0-4.19,5.21c-.54.9-1.76,2.89-3.64,6q.46-3.1,5.7-21.73,2-7.21,1.82-8.66a25.11,25.11,0,0,0-1.38-5.9c-1-2.21-2.33-3.21-4.09-3q-8.64,1.19-16.51,13.67t-6.52,22.28a4.91,4.91,0,0,0,.8,2.2,1.69,1.69,0,0,0,1.73.74c1-.14,1.62-.91,1.8-2.32a39.75,39.75,0,0,1,3.29-11.67q3.29-7.63,6.8-8.12l1,.6q-.8,6.33-4,20.17-4.1,18-4.93,22.48-2.15,12-1.37,17.6a9.77,9.77,0,0,0,2.28,4.44c1.35,1.68,2.57,2.45,3.66,2.3a2.42,2.42,0,0,0,1.93-1.37c.42-.78.79-1.53,1.14-2.22a44.55,44.55,0,0,0,3-9.79q1.87-9.15,2.15-10.28a154.46,154.46,0,0,1,6.26-16.1q4.65-10.74,5.32-14.86Z"/></g><g id="_Gruppe_6" data-name="&lt;Gruppe&gt;"><path id="_Sammensat_kurve_5" data-name="&lt;Sammensat kurve&gt;" d="M338.36,155.75q-.9-6.46,1.13-18.55T340.94,121q-.37-2.74-4.89-3.95a16.83,16.83,0,0,0-6.53-.44Q320,118,306.85,133.84T295,159.4a14.79,14.79,0,0,0,2,5.63q1.59,2.64,3.89,2.33a29.33,29.33,0,0,0,14-6.2,35.55,35.55,0,0,0,10.28-12.38,17.79,17.79,0,0,0,.18,2.17q.17,1.19.36,2.63a44.78,44.78,0,0,0,2,8.74c.85,2.4,2,3.5,3.47,3.29.51-.06,1.5-.1,3-.11a28.62,28.62,0,0,0,3.21-.13,2.92,2.92,0,0,0,2-1.44,6,6,0,0,0,1-2.63,17.35,17.35,0,0,0-1.1-2.71A10.09,10.09,0,0,1,338.36,155.75ZM323.69,142.3q-8.21,13.3-12.37,13.88c-.66.09-1-.3-1.16-1.18q-.78-5.62,7.15-18.1t12.63-13.13c.8-.1,1.25.12,1.32.67Q331.89,129,323.69,142.3Z"/></g><g id="_Gruppe_7" data-name="&lt;Gruppe&gt;"><path id="_Sammensat_kurve_6" data-name="&lt;Sammensat kurve&gt;" d="M361.92,76.74a6.09,6.09,0,0,0-1.14-3,2.56,2.56,0,0,0-2.52-.88c-.66.09-2.5,1.57-5.52,4.42a14.11,14.11,0,0,0-2.62,2.85,4.4,4.4,0,0,0-.21,2.53l.49,2.73q.36,2.63-3,6.81c-2.25,2.79-3.34,4.5-3.25,5.14.14,1,.79,1.48,2,1.31q3.61-.5,9-6.48a37.3,37.3,0,0,0,6.6-9.56,8.45,8.45,0,0,0,.37-2.6A19.74,19.74,0,0,0,361.92,76.74Z"/></g><g id="_Gruppe_8" data-name="&lt;Gruppe&gt;"><g id="_Gruppe_9" data-name="&lt;Gruppe&gt;"><path id="_Sammensat_kurve_7" data-name="&lt;Sammensat kurve&gt;" d="M105.06,114c-2.26,2.48-4.51,5.17-6.68,8l-.07.09a74.19,74.19,0,0,0-7,10.5,10.09,10.09,0,0,1-5.21,4.66,9.63,9.63,0,0,1-8.15-.54,23.25,23.25,0,0,1-4.09-2.74l-1.63-1.33-1.11,1.79a188.08,188.08,0,0,0-27.79,98.54c0,3.43.1,7,.3,10.68l.4,7.15,3.11-6.46a207.13,207.13,0,0,1,11.68-21C68.54,208,78.92,196,89.68,187.58a114.58,114.58,0,0,1,9.45-6.69l.78-.49.07-.93c.78-10.47,2.08-23,3.87-37.27,1.07-8.5,2.55-17.44,4.38-26.6l1.31-6.54Zm-4.87,27.74c-1.74,13.91-3,26.19-3.81,36.53-2.94,1.88-6,4-9,6.4-11.09,8.69-21.75,21-31.68,36.64h0c-3.12,4.95-6,10-8.66,15,0-1.13,0-2.24,0-3.34a184.37,184.37,0,0,1,26.18-94.85,23.61,23.61,0,0,0,3,1.86,13.41,13.41,0,0,0,11.22.7,13.79,13.79,0,0,0,7.11-6.34,70.46,70.46,0,0,1,6.64-10l.08-.1c.66-.86,1.34-1.7,2-2.53C102.06,128.56,101,135.28,100.19,141.74Z"/></g><g id="_Gruppe_10" data-name="&lt;Gruppe&gt;"><path id="_Sammensat_kurve_8" data-name="&lt;Sammensat kurve&gt;" d="M341.6,106.81l-1.92-1.38a10.07,10.07,0,0,1-4.08-6.92c-.6-4.32,1.84-7.72,5.09-11.74.2-.25.37-.47.52-.66l.46-.64-.29-1.65a15.47,15.47,0,0,1-.12-3.17l.06-1-.84-.6a188.57,188.57,0,0,0-201-10.41l-3.41,1.92,3.65,1.41a29.65,29.65,0,0,1,5.46,2.61l.87.65a10.41,10.41,0,0,1,3,4.27,9.78,9.78,0,0,1-.18,7.43c-.81,2.18-2.64,7.64-5.29,15.78a259.1,259.1,0,0,0-6.77,25.76l-2.3,10.47,5.67-9.1q1.43-2.3,2.88-4.57c4.92-7.8,9.67-15,14.13-21.34,2.4-3.38,4.71-6.57,6.87-9.51s4.21-5.59,6.06-7.89a35.39,35.39,0,0,1,8.7-8.42l.26-.16a19.71,19.71,0,0,1,9.37-3h.32a16.13,16.13,0,0,1,14.07,8.27,37,37,0,0,1,3.77,7.33l.39,1.66,0,.32-.33,4.11a9.83,9.83,0,0,1-2.56,4l-.14.14a200.61,200.61,0,0,0-22.18,24.41c-5.69,7.3-11.15,14.81-16.2,22.33l-.72,1.07,4.09,5.66c.17.23.35.46.53.69l2,2.57,1.4-2.29a90.82,90.82,0,0,1,7.51-10.36c10.43-12.6,19.36-19,28.12-20.24a25.44,25.44,0,0,1,9.87.64,17.72,17.72,0,0,1,7,3.5l2.19,1.88.78-2.78c.42-1.5.84-3,1.25-4.37,2.32-7.87,3.82-11.08,6.12-13.14l.67-.55a18.67,18.67,0,0,1,3.72-2c.32-.14.54-.24.66-.3l.3-.19,1.45-1.13.69-.47a14,14,0,0,1,5.34-2,13.06,13.06,0,0,1,1.58-.1,10.72,10.72,0,0,1,9.71,6.09c.06.12.12.26.18.39l1.65,3.71,1.42,3.19.32-4h0l.26-3.23c.3-3.6,2.57-6.74,4.68-9.39,2.67-3.36,5.71-6.54,9.87-7.12a11.1,11.1,0,0,1,1.47-.1c2.94,0,5.94,1.18,9.16,3.6,3.72,2.81,5.85,6,6.34,9.56a17.3,17.3,0,0,1-.84,8.29l-.31.89.54.78a16.68,16.68,0,0,1,1.47,2.65l.06.13a30.14,30.14,0,0,1,1.82,7.08l.62,4,2.61-3.08c10-11.79,18.6-17.81,27.07-19a25.38,25.38,0,0,1,9.81.63l2.57.66,7.05,1.82Zm-13.77-2.36c-8.68,1.2-17.28,6.75-26.87,17.39a26.56,26.56,0,0,0-1.34-4.18l-.06-.16a21,21,0,0,0-1.3-2.48,21.24,21.24,0,0,0,.73-9.15c-.63-4.56-3.25-8.59-7.78-12-3.89-2.93-7.6-4.35-11.38-4.35a14,14,0,0,0-2,.14c-5.45.75-9.11,4.51-12.26,8.47a29.44,29.44,0,0,0-4.34,6.87,14.2,14.2,0,0,0-11-5.06,15.8,15.8,0,0,0-2.08.14,17.56,17.56,0,0,0-6.84,2.51l-.83.55-1.44,1.12-.3.14a21.39,21.39,0,0,0-4.51,2.46l-.8.66c-3,2.64-4.73,6.27-7.27,14.92l-.53,1.85a23,23,0,0,0-6.22-2.61,29.07,29.07,0,0,0-11.31-.73c-9.74,1.35-19.42,8.19-30.46,21.54A98.72,98.72,0,0,0,171.3,151l-1.81-2.5c4.8-7.1,9.95-14.18,15.33-21.06a197.14,197.14,0,0,1,21.78-24l.17-.16a13.53,13.53,0,0,0,3.6-5.78l.45-5.11-.11-.81-.45-2,0-.16a39.92,39.92,0,0,0-4.14-8.17,19.74,19.74,0,0,0-17.26-10.05h-.4a23.44,23.44,0,0,0-11.17,3.52l-.31.19a38.92,38.92,0,0,0-9.64,9.27c-1.87,2.31-3.94,5-6.15,8s-4.49,6.16-6.91,9.57c-3.6,5.13-7.38,10.79-11.29,16.86,1.41-5.68,2.82-10.64,4.21-14.8,3.32-10.24,4.69-14.17,5.21-15.57a13.48,13.48,0,0,0,.2-10.11,14.23,14.23,0,0,0-4.17-5.83l-1-.78-.08-.06A23,23,0,0,0,144.61,70,184.88,184.88,0,0,1,337.53,81.45a19.94,19.94,0,0,0,.19,2.92l0,.17c-3.52,4.36-6.6,8.76-5.81,14.49a14.36,14.36,0,0,0,1.79,5.24A27.93,27.93,0,0,0,327.83,104.45Z"/></g><g id="_Gruppe_11" data-name="&lt;Gruppe&gt;"><path id="_Kurve_2" data-name="&lt;Kurve&gt;" d="M267.77,119.09l-1.12,1.2c-.57.61-1.2,1.33-1.9,2.19L259.4,129l2.14-8.15a12.06,12.06,0,0,0,.42-3.76l-.17-3.26-.2-3.9,1.95,3.13h0l1.84,3a15.3,15.3,0,0,0,1.33,1.83Z"/></g><g id="_Gruppe_12" data-name="&lt;Gruppe&gt;"><path id="_Kurve_3" data-name="&lt;Kurve&gt;" d="M228.25,343.18l-.17-6.72a84.27,84.27,0,0,1,1.23-14c.2-1.24.57-3.3,1.1-6.13l.66-3.54,2.49,2.6a10.16,10.16,0,0,1,2.49,6h0c.44,3.55-.75,8.35-3.44,13.87-.36.73-.72,1.43-1.08,2.07Z"/></g><g id="_Gruppe_13" data-name="&lt;Gruppe&gt;"><path id="_Sammensat_kurve_9" data-name="&lt;Sammensat kurve&gt;" d="M231.76,417.66a182.76,182.76,0,0,1-112.33-38.07,56.18,56.18,0,0,0,5.6-3.95,94.63,94.63,0,0,0,12.52-12.41,118.41,118.41,0,0,0,7.48-9.91l.92-.08a49.51,49.51,0,0,0,23.34-9.59,15.55,15.55,0,0,0,13.55,8,15.13,15.13,0,0,0,1.71-.1c.15,0,.52,0,1.23,0h1.12a43.24,43.24,0,0,0,5.78-.2,15.63,15.63,0,0,0,3.29-.78l.19,1.62c1.33,10.75,3.91,18,8.15,22.71,4.79,5.34,11.48,7.78,19.13,6.85,10.68-1.31,20.62-10.78,32.21-30.7A143.79,143.79,0,0,0,265,332.3l1.76.51L279.19,335c5.32,1.18,6.43,1.36,7.25,1.46a23.66,23.66,0,0,0,6.07-.14,45.18,45.18,0,0,0,15.12-5.14c10.15-5.32,14.78-12.14,13.79-20.29l-1.08-3.68-1.25-2.57-6.79-5.37q.46-.76.89-1.55l1-2.39.07-.19c1-3.57,2.08-7.2,3.17-10.8a24.06,24.06,0,0,0,2-7.25,39.51,39.51,0,0,0-.3-9.11,24.09,24.09,0,0,0-6.07-13.71,19,19,0,0,0-16.58-6c-11.38,1.4-22,8.65-31.74,21.56l-1.26-3.29-2.37-2.69-5.29-3.38-.25-.07-.47-.17a15.18,15.18,0,0,0-5.29-1.1c3-7.84,4.35-10.27,4.66-10.78.49-.56,1.24-1.4,2.22-2.51l.79-1,.06-.07a21.9,21.9,0,0,0,3.73-8.35,22.71,22.71,0,0,0,.3-7.36c-.12-1-.33-2.24-.65-3.82-.24-1.2-.31-1.7-.31-1.7s-.06-.56-.07-2.33l-.09-1.33a16.38,16.38,0,0,0-4.45-9.63A15.09,15.09,0,0,0,243.21,206c-9.71,1.19-17.86,8.15-24.2,20.65-3.62,7-6.92,16.57-10.11,29.26l0,.19c-1.21,5.2-2.43,10.52-3.63,15.87l-.49.22a22.28,22.28,0,0,0-11.19-6.64,33.65,33.65,0,0,0-13.11-1c-9.26,1.14-18.88,6.82-29.44,17.39a12.48,12.48,0,0,0-2,2.06c-1.41,1.48-2.88,3.09-4.3,4.73-.38.39-.76.82-1.09,1.24l-.32.37c-1.13,1.32-2.28,2.74-3.53,4.33l-.12.15-.52.66c-7.87,10.15-12.42,19.12-13.92,27.41a64.57,64.57,0,0,1-11.13,14.32l-.08.07c-5.8,5.69-11.37,8.57-16.57,8.57-5.57,0-9.69-1.18-12.61-3.62l-.18-.15a40,40,0,0,1-4.15-4,34.91,34.91,0,0,1-3.86-5.64c-2.4-4.22-4.26-10.28-5.54-18-1.3-7.92-.93-18.54,1.08-31.59A92.48,92.48,0,0,1,80.47,257a165,165,0,0,1,15.37-26.27c1.86-2.53,3.78-5,5.74-7.37l.48.34c3.74,2.33,5.92,3.67,6.62,4.08l.89.54,1.91.94,1.23.48,3.46-1.09.23,1.66,1.1-.15c-.3.48-.62.93-.92,1.37l-.19.29c-1.46,2.19-2.15,3.08-2.42,3.41l-.42.56A14.34,14.34,0,0,0,111,245.84a14.07,14.07,0,0,0,5.6,9.69,35,35,0,0,0,11,5.31,19,19,0,0,0,5.76.9c4.55,0,11.19-1.66,17-9.56,3.49-4.73,6.13-11.13,8.07-19.58a83.1,83.1,0,0,0,1.86-24.36l-.4-3.36a80,80,0,0,0-1.95-10.27l-.14-.5c-.16-.51-.32-1-.49-1.51,2.4,2.18,4.94,4.36,7.59,6.52a82.46,82.46,0,0,0,24.39,14.06,36.43,36.43,0,0,0,12.74,2.6,21.54,21.54,0,0,0,9.71-2.16c4.82-2.36,7.93-4.62,10.14-7.38l.46-.62a12.72,12.72,0,0,0,1.12-12.72,15.42,15.42,0,0,0,6.64-5.76c.3-.46.58-.93.84-1.42a20.83,20.83,0,0,0,9.22,2.1,23.87,23.87,0,0,0,3.13-.21,33.62,33.62,0,0,0,11.17-3.75,56.16,56.16,0,0,0-.42,14.92,21.22,21.22,0,0,0,4.87,10.46c4.59,5.73,9.6,6.93,13,6.93a13.66,13.66,0,0,0,2-.14A14.73,14.73,0,0,0,285,208.18c.44-.85.85-1.65,1.25-2.43l.11-.24a55.82,55.82,0,0,0,3.93-12.6c1.56-7.65,1.93-9.32,2-9.57.18-.65.66-2.09,1.8-5a15.55,15.55,0,0,0,8.52,1.23,40.66,40.66,0,0,0,17.21-6.72A15,15,0,0,0,330.91,178a13.86,13.86,0,0,0,1.75-.11c.18,0,.66,0,1.6,0a37.49,37.49,0,0,0,4.88-.25,15.14,15.14,0,0,0,10.66-6.92,18.21,18.21,0,0,0,2.9-8l0-.17-.28-3.88-.06-.33a26.9,26.9,0,0,0-1.92-5c-.18-2.23-.11-6.43,1.15-14.06,2.06-12.35,1.89-17.1,1.5-19.86a16,16,0,0,0-4.23-8.7c4.5-.91,8.86-3.58,13.53-8.3,2.52,2.52,5,5.13,7.33,7.77-3.79,5.89-5.3,11.25-4.6,16.35a16.56,16.56,0,0,0,1.81,5.43,24.75,24.75,0,0,0-5.33,7.12c-2.72,5.25-3.75,10-3.12,14.54,1,7.1,6.06,12.47,13.6,14.38a28.51,28.51,0,0,0,11,.51,36,36,0,0,0,18.47-8.27A183.11,183.11,0,0,1,416.4,226.9h3.68A186.63,186.63,0,0,0,404,156.36L402.9,154l-1.89,1.8-.18.18a32.73,32.73,0,0,1-18.18,8.85,25.07,25.07,0,0,1-9.61-.42c-6-1.53-10.1-5.76-10.86-11.31-.52-3.76.38-7.8,2.74-12.35a19.75,19.75,0,0,1,5.51-6.88l1.35-1-.86-1.43a14.06,14.06,0,0,1-2.1-5.44c-.62-4.49,1-9.39,4.79-15l.81-1.18-1-1.08c-3.1-3.53-6.39-7-9.78-10.35l-1.36-1.33L361,98.47c-4.95,5.33-9.32,8.1-13.76,8.71a10.83,10.83,0,0,1-3.23,0l-2.45-.36-7.39-1.1,6.52,3.68,2.14,1.21a12.47,12.47,0,0,1,6.61,9.26c.34,2.5.49,6.88-1.49,18.74-1.13,6.74-1.51,11.9-1.16,15.35l0,.3.27.57a24,24,0,0,1,1.65,4.19l.24,3.37a14.44,14.44,0,0,1-2.3,6.25,11.54,11.54,0,0,1-8.08,5.28,33.13,33.13,0,0,1-4.37.21c-1.19,0-1.72,0-1.87,0h-.11a9.7,9.7,0,0,1-1.37.09,11.2,11.2,0,0,1-9.21-5l-1.08-1.53-1.51,1.1a37.6,37.6,0,0,1-17,7.07,12.56,12.56,0,0,1-1.66.11,11.56,11.56,0,0,1-6.32-1.86L292.25,173l-.83,2.06c-1.68,4.17-2.38,6.28-2.7,7.39-.1.44-.51,2.28-2,9.75A52.85,52.85,0,0,1,283,203.91l-.09.2c-.37.74-.78,1.52-1.21,2.35a11.08,11.08,0,0,1-8.39,5.91,10.71,10.71,0,0,1-1.45.1c-2.59,0-6.45-1-10.11-5.55a17.73,17.73,0,0,1-4.1-8.65c-.59-4.31-.29-9.93,1-17.7l.67-4.14-3.51,2.31a31.86,31.86,0,0,1-13,5.21,19.47,19.47,0,0,1-2.63.18,17.38,17.38,0,0,1-9.11-2.55l-1.86-1.14-.8,2a16.07,16.07,0,0,1-1.38,2.66,11.55,11.55,0,0,1-6.73,5l-2.57.68,1.53,2.17a10.55,10.55,0,0,1,.66,1.08,9,9,0,0,1-.55,9.4L219,204c-1.82,2.27-4.55,4.22-8.86,6.33a17.88,17.88,0,0,1-8.08,1.78,32.81,32.81,0,0,1-11.46-2.38,78.62,78.62,0,0,1-23.31-13.43,178.41,178.41,0,0,1-14.11-12.78l-9.63-9.78,6.7,12a48.89,48.89,0,0,1,4,9.46l.12.42a75.23,75.23,0,0,1,1.85,9.75l.33,2.71,0,.5a78.69,78.69,0,0,1-1.78,23.23c-1.83,8-4.26,13.91-7.44,18.22-4.89,6.66-10.33,8.07-14,8.07a15.35,15.35,0,0,1-4.65-.74,31.58,31.58,0,0,1-9.94-4.73,10.47,10.47,0,0,1-4.14-7.19,10.64,10.64,0,0,1,1.88-7.43l.35-.47c.4-.49,1.16-1.52,2.57-3.61l.17-.24a44.39,44.39,0,0,0,3.34-5.61l2.53-4.94-5,2.44a9.71,9.71,0,0,1-1,.42l-.29-2.13-6.39,2-1.43-.7-.84-.52c-.69-.41-2.88-1.75-6.52-4l-1.05-.77c-.13-.1-.25-.22-.37-.33l-1.49-1.38-1.25,1.48c-2.4,2.84-4.77,5.85-7,9A168.26,168.26,0,0,0,77.13,255.4a96.38,96.38,0,0,0-8.62,26.87c-2.08,13.43-2.44,24.44-1.08,32.73s3.35,14.67,6,19.26a38.85,38.85,0,0,0,4.32,6.28,43.88,43.88,0,0,0,4.58,4.36l.15.13c3.6,3,8.49,4.47,15,4.47,6.19,0,12.63-3.25,19.14-9.63l.06-.06a68.1,68.1,0,0,0,11.93-15.41l.16-.29.06-.32c1.33-7.77,5.67-16.31,13.26-26.11l.48-.6.13-.17c1.23-1.56,2.35-2.93,3.45-4.23l.35-.41c.3-.38.61-.73,1-1.11,1.47-1.67,2.92-3.27,4.32-4.73l.14-.16a8.29,8.29,0,0,1,1.5-1.55l.16-.15c10-10,18.93-15.37,27.35-16.4a30.15,30.15,0,0,1,11.67.93c4.63,1.31,8,3.49,10.16,6.49l.94,1.34,1.44-.77c.9-.48,1.69-.86,2.46-1.19l.87-.37.2-.92c1.26-5.64,2.55-11.27,3.82-16.72l0-.17c3.12-12.4,6.33-21.72,9.82-28.46,5.76-11.36,12.95-17.65,21.36-18.68a11.42,11.42,0,0,1,9.7,3.14,12.74,12.74,0,0,1,3.41,7.46l.07,1c0,1.63.06,2.42.09,2.64,0,0,.07.55.37,2s.49,2.61.6,3.55a19.34,19.34,0,0,1-.25,6.17,18.08,18.08,0,0,1-3.09,6.89l-.66.83c-1.06,1.17-1.83,2-2.32,2.6l-.14.18c-.46.69-2.25,3.75-6.16,14.42l-1.15,3.16,4.13-.9a11.27,11.27,0,0,1,5.44.77l.53.19,4.43,2.83,1.59,1.79,3.49,9.14,2.25-3.24.32-.47c9.43-13.24,19.73-20.63,30.59-22a15.34,15.34,0,0,1,13.4,4.85,20.45,20.45,0,0,1,5.13,11.67,35.75,35.75,0,0,1,.29,8.24,20.35,20.35,0,0,1-1.74,6.25l-.09.23c-1.1,3.63-2.18,7.28-3.19,10.88l-.82,2c-.58,1-1.18,2.07-1.8,3.05l-1.38,2.2,3.07.71,6.37,5,.69,1.39.92,3.07c.71,6.4-3.28,11.92-11.85,16.42a41.54,41.54,0,0,1-13.86,4.74,20.49,20.49,0,0,1-5.17.14c-.67-.08-1.75-.26-7-1.42l-12.17-2.13-2-.57c-.31-.13-.63-.28-.94-.43l-1.83-.91-.72,1.91a135.47,135.47,0,0,1-9.83,20c-11,18.82-20,27.73-29.47,28.89-6.42.78-12-1.22-15.93-5.65-3.71-4.15-6-10.72-7.24-20.7l-.84-6.88-2.41,1.37a11.6,11.6,0,0,1-4.35,1.46,39.42,39.42,0,0,1-5.28.18h-1.16c-.94,0-1.37,0-1.49,0h-.11a10.85,10.85,0,0,1-1.34.08c-2.83,0-8.06-1-11.26-7.92l-1-2.11-1.84,1.44-1.09.84a46.14,46.14,0,0,1-22.17,9.32,13.17,13.17,0,0,1-1.5.09h-1l-.54.81a115.16,115.16,0,0,1-7.75,10.36,91.2,91.2,0,0,1-12,11.93,53.62,53.62,0,0,1-7.45,5l-2.4,1.35,2.16,1.71a188.34,188.34,0,0,0,270.07-38.48h-4.56A184.58,184.58,0,0,1,231.76,417.66Z"/></g></g><g id="_Gruppe_14" data-name="&lt;Gruppe&gt;"><path id="_Sammensat_kurve_10" data-name="&lt;Sammensat kurve&gt;" d="M400.59,135.6a19,19,0,0,0-3.39-8q-2.87-4.17-6.41-8.92a8.61,8.61,0,0,1,.22-3.19,9.41,9.41,0,0,0,2.59,1.77,5.26,5.26,0,0,0,2.82.29c1.75-.24,2.78-1.69,3.08-4.33a23.56,23.56,0,0,0-.18-6.18,3,3,0,0,0-2-2.41,6.62,6.62,0,0,0-3.41-.5q-4.26.58-10.71,8.48t-5.85,12.19q.26,1.91,5,7.6A25.42,25.42,0,0,1,388,145.25c.18,1.27-.18,2-1.05,2.09q-1.76.24-4.58-3.69t-5-3.64q-2.52.35-4.76,4.68t-1.86,7.19q.43,3.11,4.48,4.13a16.3,16.3,0,0,0,6.28.24,24.22,24.22,0,0,0,13.47-6.61Q401.66,143.37,400.59,135.6Z"/></g></g><g id="_Gruppe_15" data-name="&lt;Gruppe&gt;"><path id="_Sammensat_kurve_11" data-name="&lt;Sammensat kurve&gt;" d="M158.84,289.61c-.13,0-.18,0-.12.13.22.24.13.54,0,.88h0l0,.09a1.7,1.7,0,0,1,.54-.16h.14l1.54-.19C161.4,290.28,159.4,289.59,158.84,289.61Zm-.61,1.38a1.5,1.5,0,0,0-.46.83c-.06,1.08-2.47,1.69-4.26,3.61l-.36.42-.09.11c-1.51,2-4.31,4.88-6,7.77a166.71,166.71,0,0,1-9.58,20.44L137,325a76.77,76.77,0,0,1-14.44,19.15q-12.32,12.09-25.11,12.1T76.91,349.8a53,53,0,0,1-5.63-5.37,46.48,46.48,0,0,1-5.36-7.73q-4.72-8.28-7-22.14T60,279.16a103.94,103.94,0,0,1,9.35-29.27,176.36,176.36,0,0,1,16.58-28.3,149.57,149.57,0,0,1,19-21.6c.94-.84,1.87-1.64,2.78-2.39a49.9,49.9,0,0,1,10.88-7.09l.45-.19a23.27,23.27,0,0,1,3.33-1.17,12.2,12.2,0,0,1,7.44.33h0c2.09.88,3.74,2.75,4.94,5.59a28.17,28.17,0,0,1,1.86,18.58,62.34,62.34,0,0,1-5.94,16.42,53.47,53.47,0,0,1-4,6.71c-1.28,1.92-2.29,3.34-3,4.25a2,2,0,0,0-.39,1.45,1.71,1.71,0,0,0,.73,1.31,23.29,23.29,0,0,0,7.39,3.44c3.26,1,6.31-.36,9.15-4.24q3.65-5,6-15A70.13,70.13,0,0,0,148,207.28l-.34-2.75a66.38,66.38,0,0,0-1.63-8.66,39.83,39.83,0,0,0-4.64-10,15.08,15.08,0,0,0-6.62-5.76q-.68-.3-1.41-.55a21.3,21.3,0,0,0-10.05-.94h0l-1.4.18c-.75.12-1.51.28-2.28.46a47.4,47.4,0,0,0-11.41,4.47A91.36,91.36,0,0,0,95,192.51q-15,11.79-28.88,33.54-21.33,33.68-24.81,65.51a109.86,109.86,0,0,0-.06,26.11,87,87,0,0,0,9.22,29.94q8.22,15.93,20.31,21.74t24,4.36l.14,0a44.46,44.46,0,0,0,12-3.18,46,46,0,0,0,10.33-6.24,81.47,81.47,0,0,0,10.9-10.82,105.64,105.64,0,0,0,9.12-12.62q1.32-2.12,2.55-4.27a138.26,138.26,0,0,0,9.93-21.5c3.17-8.88,7.09-16.17,8.56-23.5a3.31,3.31,0,0,1,.35-.85A1.76,1.76,0,0,0,158.23,291Z"/><path id="_Sammensat_kurve_12" data-name="&lt;Sammensat kurve&gt;" d="M192.5,325q-1-8.26,1.78-23.68t2.16-20.62c-.29-2.35-2.34-4.06-6.18-5.15a21.31,21.31,0,0,0-8.32-.68q-9.93,1.22-23.09,14.71l-.12.13q-2.55,2.62-5.21,5.68l-.36.42-.09.11-.42.48Q138.08,313.51,137,325a17.89,17.89,0,0,0,0,3.86,18.72,18.72,0,0,0,2.45,7.24c.09.15.18.3.28.43q1.9,2.95,4.65,2.61a37.55,37.55,0,0,0,18-7.66,45.5,45.5,0,0,0,13.37-15.62,26.26,26.26,0,0,0,.19,2.77c.13,1,.27,2.15.42,3.37a57.51,57.51,0,0,0,2.37,11.21c1,3.07,2.5,4.5,4.37,4.27.66-.07,1.93-.1,3.84-.08a34.44,34.44,0,0,0,4.11-.11,3.72,3.72,0,0,0,2.62-1.8,7.64,7.64,0,0,0,1.3-3.34,20.29,20.29,0,0,0-1.36-3.49A13,13,0,0,1,192.5,325ZM174,307.57q-10.73,16.86-16.06,17.51-1.26.17-1.47-1.52-.89-7.2,9.48-23T182.34,284c1-.13,1.59.17,1.67.88Q184.73,290.72,174,307.57Z"/><path id="_Sammensat_kurve_13" data-name="&lt;Sammensat kurve&gt;" d="M257.2,307.6q-1.32-10.7-11.88-15.62-6.94-3.2-19-4c1.23,0,2.52-.16,3.88-.32l4.13-.51q8.83-1.08,13.35-3.65A11.62,11.62,0,0,0,254,272.56l-2-2.24c-.49-.15-1-.31-1.49-.52a2.72,2.72,0,0,0-1.3-.22l-18.89,6q2.35-7.43,6.71-19.47,5.22-14.3,7.82-17.42c.5-.58,1.38-1.57,2.62-3a9.53,9.53,0,0,0,1.69-3.63,10.59,10.59,0,0,0,.15-3.44c-.08-.71-.25-1.67-.5-2.89s-.4-2.12-.48-2.74-.12-1.79-.15-3.55a4.23,4.23,0,0,0-1-2.51,2.82,2.82,0,0,0-2.49-.63q-8.13,1-14.77,14.09-4.72,9.12-9.11,26.6-2.6,11.2-5.08,22.37-6.46,1.73-9.81,4.62a11.22,11.22,0,0,0-3.7,10.4c.12,1,1.56,1.93,4.32,2.73q2.64.76,5.43,1.36-3.34,18-3.85,21.91a88.44,88.44,0,0,0-.55,22.13l.77,6.28q1.47,11.95,5.09,16,3.14,3.49,8.46,2.84,9.39-1.15,23.07-24.66T257.2,307.6Zm-16.84,29.58q-5.58,11.39-12.3,12.23-3.5.43-6-3.92a20.5,20.5,0,0,1-2.36-7.63q-.76-6.28,1.13-18.62.65-4,3.42-18.45,8.71,1.41,13.4,4.88,6,4.39,7,12.81Q245.57,326.43,240.36,337.18Z"/><path id="_Sammensat_kurve_14" data-name="&lt;Sammensat kurve&gt;" d="M309.2,310.53l-.94-1.9-2.2-.51c-.19,0-2.24,1.05-6.16,3.09a11.58,11.58,0,0,1-3.83,1.25q-6.59.8-12.25-4.72a29.52,29.52,0,0,0,10.54-6.88,49,49,0,0,0,8-10.93c1.13-4,2.3-8,3.52-11.93a11.65,11.65,0,0,0,1.27-4.12,29.1,29.1,0,0,0-.28-6.26,12.06,12.06,0,0,0-2.9-6.88,6.67,6.67,0,0,0-6-2.13q-12.61,1.55-24.62,18.41T263,307.51q1.15,9.34,6.09,11.37l12.51,2.2c3.6.8,5.72,1.24,6.34,1.32a14.16,14.16,0,0,0,3-.15,33.52,33.52,0,0,0,10.91-3.82Q309.67,314.37,309.2,310.53Zm-27.4-14.66q-.66-5.36,4-14.71t9.44-9.94q2.1-.25,2.48,2.81.58,4.75-5.08,14.3t-8.87,9.95C282.67,298.41,282,297.61,281.8,295.88Z"/></g><g id="_Gruppe_16" data-name="&lt;Gruppe&gt;"><path id="_Sammensat_kurve_15" data-name="&lt;Sammensat kurve&gt;" d="M342.11,329.93h-.51a4.44,4.44,0,0,1-.55,0l-.81-.09,0-3.67.7-.18.48-.13c8.11-2.26,13.3-6.65,13.24-11.2a7.32,7.32,0,0,0-1.84-4.57l-.78-.95,1.13-.49a18.23,18.23,0,0,0,7.21-5.1l.27-.35,157.08-1.95-3.73,14.48a9.23,9.23,0,0,1-1.73,5.55c-3.15,4.4-10.44,6.71-21.69,6.84l-148.4,1.85Zm0-1.85h0l148.39-1.85c10.47-.13,17.46-2.23,20.21-6.07a7.45,7.45,0,0,0,1.38-4.57v-.12l3.19-12.38L361.5,305a19.61,19.61,0,0,1-6.59,4.83,8.73,8.73,0,0,1,1.55,4.76c.07,5.46-5.44,10.41-14.4,12.95Z"/></g><g id="_Gruppe_17" data-name="&lt;Gruppe&gt;"><path id="_Sammensat_kurve_16" data-name="&lt;Sammensat kurve&gt;" d="M359.75,277.21l-.28-.36c-2-2.58-5.81-4.75-10.63-6.11l-1.91-.54,1.64-1.11c3.17-2.15,4.9-4.77,4.86-7.37a6.06,6.06,0,0,0-.76-2.88l-.4-.75.71-.46a11.56,11.56,0,0,0,4.91-9.71,11.38,11.38,0,0,0-.3-2.67l-.27-1.13,46.23-.6v.92c.14,11.37,2.1,17.74,3.15,18.11,1-.41,2.73-6.83,2.58-18.17v-.92l34.14-.42.06.87c.64,9.25,2.3,12.89,3,13.14.57-.26,2.14-3.93,2.52-13.19l0-.87,6.29-.07c3.24,0,6.52.05,9.76.29,1.12.07,2.3.17,3.71.32,11.17,1.17,21.42,4,29.64,8.1,6,3,10.62,6.57,13.78,10.59a19.77,19.77,0,0,1,4.65,12.12v.92Zm-8.66-7.7a21.62,21.62,0,0,1,9.54,5.84L515,273.44a18.29,18.29,0,0,0-4.21-10.08c-3-3.81-7.43-7.2-13.17-10.09-8-4-18-6.77-29-7.92-1.38-.15-2.54-.24-3.64-.31-3.2-.23-6.43-.33-9.61-.28l-4.55.05c-.25,4.83-1.15,14.05-4.35,14.08s-4.33-9.17-4.71-14l-30.56.37a71.9,71.9,0,0,1-1,12.74c-.8,4.33-1.91,6.35-3.5,6.38-4.15,0-4.85-15-5-19l-42.14.55a14.16,14.16,0,0,1,.13,2,13.57,13.57,0,0,1-5.08,10.79,7.68,7.68,0,0,1,.62,3C355.32,264.48,353.85,267.21,351.09,269.51Z"/></g><path id="_Kurve_4" data-name="&lt;Kurve&gt;" d="M514.55,298.18l-4.93.06-51.24.63-3.93,0-47.57.58-4,0L363.2,300l0-.87v0a14.83,14.83,0,0,0,2.15-7.62l40.57-.5,3.88,0,46.94-.58,3.89,0,49-.61,4.85-.06Z"/><g id="_Gruppe_18" data-name="&lt;Gruppe&gt;"><path id="_Sammensat_kurve_17" data-name="&lt;Sammensat kurve&gt;" d="M280.27,365.9l-.46-.73a4.28,4.28,0,0,0-.22-.61.66.66,0,0,0-.26-.32.56.56,0,0,1-.17-.06A.36.36,0,0,1,279,364c.17-.08.25-.17.25-.24s-.18-.34-.51-.52V363l-.53-1.16a2,2,0,0,1-.18-.37c0-.1-.2-.43-.51-1a3.49,3.49,0,0,1-.37-.78,2.43,2.43,0,0,0-.9-1.62l0-.18-.13,0a.53.53,0,0,1-.14-.24l.2-.12c-.22-.42-.34-.66-.36-.71l-.18-.29s0-.09,0-.24a1,1,0,0,0-.3-.56,1.1,1.1,0,0,0,0-.28l-.17-.42-.11-.27a1,1,0,0,0-.22-.23,1.74,1.74,0,0,1-.18-.17.5.5,0,0,0,.1-.22,1.51,1.51,0,0,0-.13-.38c-.11-.3-.23-.47-.33-.5l-.39-.12a.54.54,0,0,1-.15-.21l.34-.18v-.2a3.15,3.15,0,0,0-.11-.58,1.81,1.81,0,0,1-.22-.59,3.17,3.17,0,0,0-.1-.56c0-.42-.11-.62-.28-.62a.48.48,0,0,0-.3.13.38.38,0,0,0-.18.26l-.14,0s-.07,0-.12.14a.78.78,0,0,1-.1.21l-.16-.12-.69.48v.32a.39.39,0,0,0,.07.19c-.06.09-.13.2-.2.34a1.4,1.4,0,0,1-.24.33v0l.09.08a.85.85,0,0,1-.18.23v.14l.21.1,0,.11-.36,0-.1.23a2.54,2.54,0,0,1-.17.42.7.7,0,0,0-.09.19.62.62,0,0,1,0,.18,1,1,0,0,1-.17.28,1.42,1.42,0,0,0-.12.26.69.69,0,0,1,.06.2.5.5,0,0,1,0,.15l-.17-.25c-.06.08-.11.18-.17.29a.82.82,0,0,1-.16.24,1,1,0,0,1,0,.14.17.17,0,0,1,0,.06l-.24.34a1.45,1.45,0,0,0,0,.18l-.23.24-.55,1.09a8.36,8.36,0,0,0-.47.74,3.92,3.92,0,0,1-.19.45c-.2.18-.31.29-.33.31a.81.81,0,0,0-.06.24,1.94,1.94,0,0,0-.33.37l-.17.32s-.07.07-.18.15a.7.7,0,0,1,0,.19.59.59,0,0,1,0,.14l0,0-.37-.13a.73.73,0,0,0-.24,0l-.2.29a1.35,1.35,0,0,0-.15.34.54.54,0,0,0-.11.19.78.78,0,0,0,.06.24h.25l.09,0a.22.22,0,0,1,.1.06l0,.08-.84,1.31-.21.29s0,.06,0,.12a1.12,1.12,0,0,0,0,.17l0,0-.17,0-.46.85a3.24,3.24,0,0,1-.4.42.55.55,0,0,0-.23.38s0,.08,0,.14a.56.56,0,0,1-.16.19,1.33,1.33,0,0,0-.19.16,2.29,2.29,0,0,1-.34.42l-.25.15-.07.13a.94.94,0,0,1,.35.22h.12a.16.16,0,0,1,.11,0l.18.08a.36.36,0,0,0,.18-.08,1.85,1.85,0,0,1,.31-.16.84.84,0,0,1,.25-.37l.28-.14.13-.4c-.13-.11-.19-.19-.19-.26a.1.1,0,0,1,0-.09l.46-.3.08-.12c.08-.15.17-.28.24-.4l.41-.82a2,2,0,0,1,.18-.23.58.58,0,0,0,0-.15c0-.08,0-.14,0-.18a.19.19,0,0,1,.06-.13l.16,0c.17-.3.3-.52.4-.67a2.39,2.39,0,0,0,.33-.51l.12-.2a2.38,2.38,0,0,0,.37-.07,2.51,2.51,0,0,1,.42-.07,1.46,1.46,0,0,1,.38,0l.26,0,.13,0a2.11,2.11,0,0,0,.38-.06,2.14,2.14,0,0,1,.54-.19l.24.27a3.37,3.37,0,0,0,.46-.07A2.74,2.74,0,0,1,271,361l.3.07.26,0,.53.12h.87l.23,0h.23l.27,0,.25,0,.47-.08a1.28,1.28,0,0,1,.49.14,1.32,1.32,0,0,0,.36.13,1.45,1.45,0,0,1,.51.22.41.41,0,0,0,.24.12l.08,0q0-.64.33-.64a.5.5,0,0,1,.48.3,4.71,4.71,0,0,1,.15.65l.13.3a5.35,5.35,0,0,0,.14.54,2.85,2.85,0,0,0,.28.43l.42,0a.57.57,0,0,1,0,.12s0,.07-.08.12l-.14.17.25.23a.72.72,0,0,0-.08.29s0,.06,0,.13a1,1,0,0,0,0,.26.53.53,0,0,0,.18.26.7.7,0,0,0,0,.14,4.51,4.51,0,0,0,.23.7,1.36,1.36,0,0,1,.17.39,3.9,3.9,0,0,0,.26.71,3.28,3.28,0,0,1,.6-.2l.3,0a2.6,2.6,0,0,0,.41-.15c0-.06,0-.1,0-.13A.35.35,0,0,1,280.27,365.9Zm-4.06-5.37-.63-.06-.76.07-.4,0-.5.08-.21-.06-.23,0-.23,0-.25,0-.18-.06h-.48l-.3-.06-.54.26a.5.5,0,0,1-.42-.26,4.17,4.17,0,0,0-.55-.06,2.65,2.65,0,0,0-.57-.13h-.76a1.58,1.58,0,0,0-.48.06l-.11-.18-.26,0c-.08-.07-.14-.11-.18-.11a.75.75,0,0,0-.23.1l.11-.3a2.62,2.62,0,0,1,.24-.42l.1-.24.19-.21.23-.42a.92.92,0,0,0,.07-.3c0-.15,0-.24.1-.28a2.5,2.5,0,0,0,.76-1,3.06,3.06,0,0,0,.3-.67l-.22-.13.07-.11.28,0h0l.13-.06,0-.24a.77.77,0,0,0,.46-.47.39.39,0,0,1,.19-.23,1.69,1.69,0,0,1,.18-.42l.49-.93c.16-.21.28-.41.38-.57h0a1.05,1.05,0,0,1,.14-.51.82.82,0,0,1,.29-.28,3.19,3.19,0,0,1,.25.42l.15.26.15.5.29.34.13.3.12.22.06.33.2.31a1.16,1.16,0,0,1,.12.23H274a.26.26,0,0,1,.21.13l-.18.08a.82.82,0,0,0,.11.37,1.82,1.82,0,0,1,.22.63l.1.17.21.38.18.26.06.21.11.26.3,0a.91.91,0,0,1,.06.29,2.11,2.11,0,0,1,0,.37.87.87,0,0,1,.14.3.9.9,0,0,0,.13.29,2.83,2.83,0,0,1,.34.6.64.64,0,0,0,.24.26,1,1,0,0,0,0,.2,1.75,1.75,0,0,1,.08.29Q276.34,360.53,276.21,360.53Z"/><path id="_Sammensat_kurve_18" data-name="&lt;Sammensat kurve&gt;" d="M288,362.8l0-.36,0-.41,0-.47a2.09,2.09,0,0,1-.13-.43,2.06,2.06,0,0,1,0-.3c-.12-.12-.18-.2-.18-.28a.07.07,0,0,1,0,0,1.73,1.73,0,0,0,.16-.53c0-.08,0-.14-.06-.17l-.57-.31s.07-.09.21-.15a1.41,1.41,0,0,1,.42-.07,2.74,2.74,0,0,0-.18-1.25c-.19-.3-.37-.45-.52-.47l-.19,0s-.09-.06-.18-.16a2.65,2.65,0,0,1-.42-.06,2.69,2.69,0,0,0-.48-.09,1.91,1.91,0,0,0-.4.12l-.17-.06a.46.46,0,0,0-.17,0,1.6,1.6,0,0,0-.92.33c-.07-.12-.15-.18-.22-.18a1.07,1.07,0,0,0-.43.29l-.3.18s-.18.15-.4.42a1.26,1.26,0,0,1-.19-.46,3.82,3.82,0,0,0,0-.49c0-.07-.11-.1-.25-.1a1.13,1.13,0,0,0-.57.31.66.66,0,0,0-.43.45.84.84,0,0,1,.2.38.44.44,0,0,0,0,.19,2.26,2.26,0,0,0,.18.29l-.19.11a6.22,6.22,0,0,1,.09.72.35.35,0,0,1,0,.1,1.2,1.2,0,0,0,0,.26c0,.06,0,.16,0,.26a1.32,1.32,0,0,1,.28,0,.21.21,0,0,1,.06.12l-.24.11a.91.91,0,0,0-.06.28,1.43,1.43,0,0,0,0,.2c0,.15,0,.25,0,.32s0,.09,0,.15,0,.15,0,.18a.76.76,0,0,0,0,.22,1,1,0,0,1,0,.21,2.49,2.49,0,0,1-.07.29v.65a2.45,2.45,0,0,1-.06.3.48.48,0,0,0,0,.16.21.21,0,0,0,.06.15c.06.07.12.11.16.11a.21.21,0,0,0,.19-.1c0-.07.08-.11.13-.11l.13-.06a.33.33,0,0,1,.12,0l.29,0a.42.42,0,0,0,.17-.21,3.28,3.28,0,0,1-.14-.78s0-.14,0-.28l0,0a.47.47,0,0,1-.18-.32.25.25,0,0,1,0-.1.62.62,0,0,0,.15-.25v-.63c0-.1,0-.16,0-.18a.23.23,0,0,0,0-.16,2.43,2.43,0,0,0-.4-.23c-.1-.06-.15-.12-.15-.18a.11.11,0,0,1,.06-.08l.39-.28s.06-.09.06-.2v0c0-.36,0-.54,0-.54a.74.74,0,0,1,.14-.41,1.53,1.53,0,0,1,.49-.34,1.73,1.73,0,0,1,.45-.23l.27-.09.09,0c.12,0,.24.14.36.42v0l.16-.16.35.06a.94.94,0,0,0,.56-.27.57.57,0,0,1,.35-.18c.06,0,.1,0,.15.11l.24.42a1,1,0,0,0,.23.09l0,0a.43.43,0,0,0,.13.29c.09.1.14.18.14.23v.42a.47.47,0,0,0,.14.21,1.69,1.69,0,0,1-.06.24l0,.07,0,.45,0,.3a2.07,2.07,0,0,1,.56.25.54.54,0,0,1-.21.35l-.25.24a1,1,0,0,0-.13.44,2.26,2.26,0,0,1,.64.22l.09.06s-.15.06-.43.11l-.17.06a.7.7,0,0,1,0,.13,1.7,1.7,0,0,1,0,.19c-.1.41-.16.63-.16.66a.7.7,0,0,0,.24.42l.38-.24.38-.16.32-.22A1.2,1.2,0,0,1,288,362.8Z"/><path id="_Sammensat_kurve_19" data-name="&lt;Sammensat kurve&gt;" d="M296.88,362.8l0-.36,0-.41,0-.47a1.6,1.6,0,0,1-.13-.43,2.06,2.06,0,0,1,0-.3c-.12-.12-.18-.2-.18-.28a.41.41,0,0,1,0,0,1.58,1.58,0,0,0,.17-.53.18.18,0,0,0-.07-.17l-.57-.31s.07-.09.22-.15a1.31,1.31,0,0,1,.42-.07,2.84,2.84,0,0,0-.19-1.25c-.19-.3-.37-.45-.52-.47l-.19,0s-.09-.06-.17-.16a2.6,2.6,0,0,1-.43-.06,2.51,2.51,0,0,0-.47-.09,1.63,1.63,0,0,0-.4.12l-.18-.06a.43.43,0,0,0-.16,0,1.6,1.6,0,0,0-.93.33c-.07-.12-.15-.18-.22-.18s-.2.09-.43.29l-.3.18c-.06,0-.18.15-.41.42a1.26,1.26,0,0,1-.19-.46,3.13,3.13,0,0,0,0-.49c0-.07-.12-.1-.25-.1a1.12,1.12,0,0,0-.58.31.68.68,0,0,0-.43.45.76.76,0,0,1,.2.38.67.67,0,0,0,0,.19s.07.12.18.29l-.19.11a4.62,4.62,0,0,1,.09.72.35.35,0,0,1,0,.1,1.89,1.89,0,0,0,0,.26v.26a1.32,1.32,0,0,1,.28,0,.21.21,0,0,1,.06.12l-.23.11a.73.73,0,0,0-.06.28,1.43,1.43,0,0,0,0,.2c0,.15,0,.25,0,.32a.84.84,0,0,1,0,.15c0,.09,0,.15,0,.18a1.32,1.32,0,0,0,0,.22,1,1,0,0,1,0,.21,1.32,1.32,0,0,1-.07.29v.65a2.44,2.44,0,0,1-.06.3,1,1,0,0,0,0,.16.21.21,0,0,0,.06.15c.07.07.12.11.16.11a.21.21,0,0,0,.19-.1c0-.07.09-.11.13-.11l.14-.06a.28.28,0,0,1,.12,0l.28,0a.48.48,0,0,0,.18-.21,2.54,2.54,0,0,1-.14-.78s0-.14,0-.28l0,0a.49.49,0,0,1-.18-.32.25.25,0,0,1,0-.1.71.71,0,0,0,.16-.25l0-.63c0-.1,0-.16,0-.18a.23.23,0,0,0,0-.16,2.15,2.15,0,0,0-.39-.23c-.1-.06-.16-.12-.16-.18s0-.06.06-.08l.38-.28s.07-.09.07-.2v0c0-.36,0-.54,0-.54a.8.8,0,0,1,.13-.41,1.53,1.53,0,0,1,.49-.34,1.63,1.63,0,0,1,.46-.23,1.69,1.69,0,0,0,.26-.09l.1,0c.11,0,.23.14.35.42v0l.17-.16.34.06a.92.92,0,0,0,.56-.27.59.59,0,0,1,.35-.18.2.2,0,0,1,.16.11l.24.42a.8.8,0,0,0,.22.09l0,0a.4.4,0,0,0,.14.29c.09.1.14.18.14.23v.42a.51.51,0,0,0,.13.21,1.69,1.69,0,0,1-.06.24l0,.07,0,.45,0,.3a1.9,1.9,0,0,1,.56.25.52.52,0,0,1-.2.35l-.26.24a1.09,1.09,0,0,0-.13.44,2.24,2.24,0,0,1,.65.22l.09.06s-.16.06-.43.11l-.18.06a.7.7,0,0,1,0,.13.72.72,0,0,1,0,.19,6.67,6.67,0,0,0-.15.66.66.66,0,0,0,.24.42l.37-.24.39-.16.32-.22A1.19,1.19,0,0,1,296.88,362.8Z"/><path id="_Sammensat_kurve_20" data-name="&lt;Sammensat kurve&gt;" d="M306.77,360.39l.17-.19v-.11h.14c0-.14,0-.35-.07-.61a3.37,3.37,0,0,0-.11-.54,2.59,2.59,0,0,0-.26-.5.68.68,0,0,1-.58-.28l-.17-.3-.3-.2a2.34,2.34,0,0,0-.82-.34.35.35,0,0,1-.2.22,1.07,1.07,0,0,0-.2-.12l0-.18a2.56,2.56,0,0,0-.51-.07,4.34,4.34,0,0,0-1.49.19,9.87,9.87,0,0,0-1,.41,1.57,1.57,0,0,1-.41.32,4.2,4.2,0,0,0-.66.35s-.08.06-.13.16l-.13.26a1.66,1.66,0,0,0-.39.3c0,.06-.18.3-.41.73s-.19.53-.24.67a4.17,4.17,0,0,0-.06.82v0a.73.73,0,0,1,.27.22c-.12.09-.18.18-.18.28a1.13,1.13,0,0,0,.18.59c0,.06.06.08.06.08l.18.12a.34.34,0,0,1,.07.12,2,2,0,0,0,.06.22l.3.17a2.87,2.87,0,0,0,.67.37l.33.06a.65.65,0,0,1,.18.17,8.54,8.54,0,0,1,.94.13l.27,0h.61l.59-.13.83-.06a3.05,3.05,0,0,0,.4-.2l.43-.2.46-.23a1.85,1.85,0,0,0,.82-.66,8.21,8.21,0,0,0,.44-.94,2.81,2.81,0,0,0,.13-.3,5.16,5.16,0,0,0,.06-.52A.46.46,0,0,1,306.77,360.39Zm-.77,1a.26.26,0,0,1,0,.16,1.7,1.7,0,0,1-.25.26l-.21.42a4.68,4.68,0,0,1-.32.5,1.4,1.4,0,0,1-.37.16,4.42,4.42,0,0,1-.58.37l-.47.1a2,2,0,0,1-.44.06.86.86,0,0,1-.28,0l-.26-.06h-.5a1.35,1.35,0,0,1-.61-.15,6.45,6.45,0,0,0-.75-.35.23.23,0,0,0-.14.08c-.14,0-.21,0-.23-.13a.64.64,0,0,0,.08-.25.07.07,0,0,0,0,0c-.27-.43-.42-.68-.44-.74s-.07-.26-.12-.44a.24.24,0,0,0-.17.08l-.08-.08v-.08c.19-.1.29-.18.29-.24s-.07-.11-.23-.22a.82.82,0,0,1-.06-.19c.19-.07.3-.18.3-.31a.61.61,0,0,0,0-.12,1.34,1.34,0,0,0,.21-.4l.17-.3a.75.75,0,0,0,.06-.3l.07-.06,1-.86.06-.07.37-.18a.67.67,0,0,0,.19-.2l.18.13a.93.93,0,0,1,.44-.19,4,4,0,0,1,.57,0l.3.06a1.17,1.17,0,0,1,.27-.08c.13,0,.21.1.28.3l.42.18.17.07.18.24a4.09,4.09,0,0,1,.39.54h.2l0,0a2.32,2.32,0,0,0,0,.34l.14.44a5,5,0,0,0,.17.52,2.18,2.18,0,0,0-.1.64l0,.17h0S305.91,361.25,306,361.38Z"/><path id="_Sammensat_kurve_21" data-name="&lt;Sammensat kurve&gt;" d="M310.57,362.67a1.17,1.17,0,0,0-.38-.23,2.45,2.45,0,0,1-.5-.32,1.36,1.36,0,0,0-.28.21,2.86,2.86,0,0,1-.45.38l-.19.15v.1a.86.86,0,0,0,.32.06,2,2,0,0,0,.21.28,2.92,2.92,0,0,1,.42.35l.18.18a2.09,2.09,0,0,0,.67-.52,1.88,1.88,0,0,0,.16-.38C310.73,362.86,310.68,362.78,310.57,362.67Z"/><path id="_Sammensat_kurve_22" data-name="&lt;Sammensat kurve&gt;" d="M320.6,362.52l-.27-.07a.64.64,0,0,1-.3.23,1.39,1.39,0,0,1-.32.09l-.4,0-.22,0-.29-.07-.25,0a2.26,2.26,0,0,1-.44-.06l-.13,0h0l-.24,0-.15,0-.18,0a1.51,1.51,0,0,1-.48-.06l-.54.06-.32-.08-.42-.06h0l-.19,0-.22,0h-.23v-.22l.17-.11.18-.3a4.84,4.84,0,0,0,.3-.47h0a12,12,0,0,1,.68-1.06l.19-.21.19-.3a2.69,2.69,0,0,0,.28-.44l.08,0,.3-.54.52-.76c.18-.3.3-.48.35-.55a3.68,3.68,0,0,0,.3-.43.56.56,0,0,0,.06-.28,1.48,1.48,0,0,0,0-.3l.18,0a.9.9,0,0,0,.11-.31,1.52,1.52,0,0,0-.06-.25v-.42s0-.08-.07-.17a2.17,2.17,0,0,0-.83-.65v-.1a.8.8,0,0,0-.3-.17,2.27,2.27,0,0,1-.35-.15l-.14.11H317a.13.13,0,0,1-.14-.08.44.44,0,0,0-.14-.23c-.07.12-.15.18-.21.18s-.15-.07-.23-.24a2.88,2.88,0,0,0-.59-.06,2.11,2.11,0,0,0-.88.15,1.34,1.34,0,0,0-.3.22l-.21.12a.72.72,0,0,1-.32.13l-.06.1h-.17a1.58,1.58,0,0,1-.17.26,2.35,2.35,0,0,0-.14.27l.4.2a.09.09,0,0,0,.1-.06,2.78,2.78,0,0,1,.18-.31l.19-.21a1,1,0,0,1,.66-.39,3.09,3.09,0,0,1,1.63.89l.06-.2a1.29,1.29,0,0,1,.3.17l0,.31.42.26a.84.84,0,0,0,.12.34.39.39,0,0,1,.09.4,2.09,2.09,0,0,0-.06.4,2,2,0,0,1,0,.33l-.1.22-.07.24-.47.69-.4.66-.09.1-.07.23-.07.17-.11.3-.17.26-.1.25-.19.21-.28.3a1.25,1.25,0,0,0-.28.42l-.18.18a8,8,0,0,1-.79.8l.06.24-.17.07-.06.13a.57.57,0,0,0-.33.11.8.8,0,0,0-.17.36q-.29,0-.36.11a.68.68,0,0,1-.26.22l0,.11h0c0,.07.11.11.27.11l.42,0a2.66,2.66,0,0,0,.39-.06l.42-.12h.16l.06-.06v-.17l.3,0v.22h.6l.09,0v-.06l0,0,.15,0,.07-.07.17.15.27,0,.24,0,.27,0,.3,0h0l.3.06h.28l.32,0h.4a2.37,2.37,0,0,1,.54.08l.25,0,.26.06c.09,0,.22-.06.39-.21a.66.66,0,0,1,.28-.17h.24a1.8,1.8,0,0,1,.23-.43.66.66,0,0,0,.16-.3A2,2,0,0,0,320.6,362.52Z"/><path id="_Sammensat_kurve_23" data-name="&lt;Sammensat kurve&gt;" d="M331.1,358.65a2.31,2.31,0,0,0-.08-.53l-.11,0a.43.43,0,0,0-.13-.22l.17,0a1.37,1.37,0,0,0-.11-.43c-.13-.42-.28-.65-.43-.67l0-.29-.36-.53a2.9,2.9,0,0,1-.48-.45l-.26,0,0-.24-.75-.2a.45.45,0,0,0-.09.27c-.14,0-.21-.13-.23-.37l0,0a.68.68,0,0,1-.22,0,2.17,2.17,0,0,0-.49-.25h0l-.3,0-.59,0-.25,0h-.08l0,0a4,4,0,0,1-.62.39l-.28.16-.19-.11,0,.06v0l-.46.27a5.71,5.71,0,0,0-.67.45l-.19.14.06.13a.59.59,0,0,0-.21.19h-.12c-.11,0-.27.18-.49.55a8.25,8.25,0,0,0-.48.9l.09.11V358a.85.85,0,0,0-.33.22.73.73,0,0,0-.14.48c0,.1,0,.22,0,.36l.16-.08c0,.06,0,.1,0,.13a.73.73,0,0,0,.09.3.59.59,0,0,1-.21,0l-.08,0a.27.27,0,0,0,0,.1l0,.2a2.17,2.17,0,0,0-.06.27,2,2,0,0,0,.06.29l0,.26.06.15.06.21.15.3a4.42,4.42,0,0,0,.24.61,2.77,2.77,0,0,1,.36.42.29.29,0,0,1,.18-.1s.08,0,.13.09v.11a.79.79,0,0,0,.1.33l.15,0,.32.3.18.18a.33.33,0,0,0,.17,0v0a1.32,1.32,0,0,1,.36.18l.21-.07,0,.08,0,0a.7.7,0,0,1,.29.06l0,0v0a5.25,5.25,0,0,0,.8.21l.27,0c.09-.09.16-.14.2-.14a3,3,0,0,1,.47.06h.06a1.54,1.54,0,0,1,.33-.09h.13a4.45,4.45,0,0,1,.42-.24,1,1,0,0,0,.32-.22h.27a.61.61,0,0,1,.14-.26s.34-.22.91-.54l.24-.28c.23-.21.36-.33.38-.36s.11-.27.3-.71a3.51,3.51,0,0,0,.16-.36.48.48,0,0,0-.1-.19.45.45,0,0,1-.1-.28c0-.14.11-.22.35-.23l.19-.54,0-.16.09-.45A.91.91,0,0,0,331.1,358.65Zm-1.18,1.59s0,0,0,.06a2.18,2.18,0,0,0-.11.35.87.87,0,0,0,0,.2l-.19.12-.09.37c0,.08-.06.14-.06.15l-.36.34-.25.31-.2.13c-.22.2-.36.31-.39.33a3.83,3.83,0,0,1-.8.17l-.49.14-.4-.06a2.55,2.55,0,0,1-.48,0l-.39-.17v.06h0v0a1,1,0,0,0-.31.09l-1.06-.11,1.11-.21a3,3,0,0,1-.57-.23.88.88,0,0,1-.35-.24.64.64,0,0,1-.25.08.12.12,0,0,1-.11-.06.37.37,0,0,1-.09-.22.55.55,0,0,1,0-.18c-.11-.12-.37-.37-.78-.77a3.84,3.84,0,0,1-.47-.7,4.53,4.53,0,0,1-.06-1,2.83,2.83,0,0,1,.13-.54l.1-.56.24-.45.07-.22.3-.3.26-.48.28-.2.23-.24a2.22,2.22,0,0,1,.69-.35l.16-.06a.56.56,0,0,1,.26-.06l.13-.1a4.67,4.67,0,0,1,.77-.09l.24,0a3.52,3.52,0,0,0,.5.06l.4,0,.13.09a.94.94,0,0,0,.26.15.24.24,0,0,0,.18.11l.2,0a.22.22,0,0,1,.13.19,1,1,0,0,1,0,.16.38.38,0,0,0,.31.21,1,1,0,0,0,.3-.06.36.36,0,0,1,.09.18.88.88,0,0,1,0,.19.81.81,0,0,1,.22.33.37.37,0,0,1,.23-.14.13.13,0,0,1,.15.15,2.73,2.73,0,0,1-.12.33l.22.51s.06.18,0,.55v.2c0,.16,0,.3,0,.41a2.64,2.64,0,0,1,0,.45l.2.18a.67.67,0,0,1-.22.19A.61.61,0,0,1,329.92,360.24Z"/><path id="_Sammensat_kurve_24" data-name="&lt;Sammensat kurve&gt;" d="M341.09,358.65a2.31,2.31,0,0,0-.08-.53l-.1,0a.38.38,0,0,0-.14-.22l.17,0a1.36,1.36,0,0,0-.11-.43c-.13-.42-.27-.65-.43-.67l0-.29-.36-.53a2.48,2.48,0,0,1-.47-.45l-.27,0,0-.24-.75-.2a.4.4,0,0,0-.09.27c-.15,0-.22-.13-.23-.37l0,0a.68.68,0,0,1-.22,0,2,2,0,0,0-.49-.25h0l-.3,0-.59,0-.25,0h-.07l0,0a3.6,3.6,0,0,1-.62.39l-.28.16-.18-.11-.06.06v0l-.46.27a5,5,0,0,0-.66.45l-.2.14.07.13a.47.47,0,0,0-.21.19h-.13c-.1,0-.27.18-.49.55a6.28,6.28,0,0,0-.47.9l.09.11V358a.83.83,0,0,0-.34.22.73.73,0,0,0-.14.48c0,.1,0,.22,0,.36l.17-.08a.42.42,0,0,0,0,.13.84.84,0,0,0,.08.3.55.55,0,0,1-.21,0l-.07,0a.38.38,0,0,0,0,.1l0,.2a1.51,1.51,0,0,0-.06.27s0,.12.07.29l0,.26.07.15,0,.21.16.3a2.73,2.73,0,0,0,.24.61,3.2,3.2,0,0,1,.35.42.31.31,0,0,1,.18-.1.18.18,0,0,1,.12.09v.11a.7.7,0,0,0,.11.33l.14,0,.32.3.19.18a.32.32,0,0,0,.16,0v0a1.38,1.38,0,0,1,.37.18l.21-.07,0,.08v0a.74.74,0,0,1,.3.06l0,0v0a5.25,5.25,0,0,0,.8.21l.28,0c.08-.09.15-.14.2-.14a2.82,2.82,0,0,1,.46.06h.06a1.43,1.43,0,0,1,.34-.09h.13a3.37,3.37,0,0,1,.41-.24.82.82,0,0,0,.32-.22h.27a.92.92,0,0,1,.14-.26s.35-.22.92-.54l.24-.28a4.62,4.62,0,0,0,.37-.36s.12-.27.3-.71a3.48,3.48,0,0,0,.16-.36.47.47,0,0,0-.1-.19.51.51,0,0,1-.1-.28c0-.14.12-.22.36-.23l.18-.54,0-.16.09-.45A.91.91,0,0,0,341.09,358.65Zm-1.18,1.59a.14.14,0,0,1,0,.06,2.18,2.18,0,0,0-.11.35c0,.06,0,.12,0,.2l-.18.12c0,.18-.08.3-.1.37a.6.6,0,0,1-.06.15l-.36.34-.24.31-.21.13a3.71,3.71,0,0,1-.39.33,3.84,3.84,0,0,1-.8.17,3.91,3.91,0,0,1-.49.14l-.4-.06a2.32,2.32,0,0,1-.47,0l-.4-.17v.06h0v0a1,1,0,0,0-.31.09l-1.06-.11,1.12-.21a3.06,3.06,0,0,1-.58-.23,1,1,0,0,1-.35-.24.59.59,0,0,1-.25.08.12.12,0,0,1-.11-.06.44.44,0,0,1-.09-.22.41.41,0,0,1,.06-.18l-.78-.77a3.84,3.84,0,0,1-.47-.7,4.53,4.53,0,0,1-.06-1,3.29,3.29,0,0,1,.14-.54l.09-.56.24-.45.07-.22.3-.3.26-.48.28-.2.23-.24a2.31,2.31,0,0,1,.7-.35l.15-.06a.56.56,0,0,1,.26-.06l.13-.1a4.65,4.65,0,0,1,.78-.09l.23,0a3.52,3.52,0,0,0,.5.06l.4,0a.68.68,0,0,1,.13.09.9.9,0,0,0,.27.15.21.21,0,0,0,.17.11l.2,0a.2.2,0,0,1,.13.19.48.48,0,0,1,0,.16.39.39,0,0,0,.31.21,1,1,0,0,0,.3-.06.29.29,0,0,1,.09.18.55.55,0,0,1,0,.19.81.81,0,0,1,.22.33.37.37,0,0,1,.23-.14c.1,0,.15,0,.15.15a2,2,0,0,1-.11.33l.21.51s.06.18,0,.55v.2c0,.16,0,.3,0,.41a4,4,0,0,1,0,.45l.2.18a.82.82,0,0,1-.23.19A.61.61,0,0,1,339.91,360.24Z"/><path id="_Sammensat_kurve_25" data-name="&lt;Sammensat kurve&gt;" d="M350.12,356.55l0-.17a1.76,1.76,0,0,0-.19-.69c-.06-.08-.09-.14-.1-.15a.08.08,0,0,0,0-.06,1.7,1.7,0,0,0,0-.31,2.35,2.35,0,0,0-.35-.31l-.31-.19-.18-.19-.7-.16-.16-.08-.29-.07-.18-.06-.32.08-.22,0a3,3,0,0,1-.41.28l-.24.19-.27.15a6.72,6.72,0,0,0-.78.52l-.48.34-.18.27-.3.24-.14.14-.11.06-.06.23-.22.24-.13.24-.23.36s0,.19,0,.49l0,.24.18.69.08.4a1.22,1.22,0,0,0,.24.37l.12.14a.8.8,0,0,0,.26.24l.3.11h0l.23-.06.1.18a1.11,1.11,0,0,0,.3.07h0l.22-.06.3.1.18,0a2.55,2.55,0,0,0,1.55-.47,1.48,1.48,0,0,0,.35-.42.49.49,0,0,0-.27-.09l-.2,0a.57.57,0,0,1-.17.12.86.86,0,0,1-.27,0,1.36,1.36,0,0,1-.33-.08h-.52a.5.5,0,0,1-.47-.24c-.18,0-.26,0-.26,0a1.73,1.73,0,0,0-.24-.2,2.65,2.65,0,0,1-.27-.3.6.6,0,0,1-.18-.17,1.67,1.67,0,0,0-.17-.34c-.14-.19-.2-.33-.18-.42h0l0-.31h0a.14.14,0,0,0,0-.08.43.43,0,0,1-.07-.23l.2-.12a1.66,1.66,0,0,1,.2-.5,3.48,3.48,0,0,1,.46-.46,2,2,0,0,1,.42-.33l.51-.26,0-.18,0,0,0,.13,0,0,.06,0a.45.45,0,0,0,.22-.1.49.49,0,0,1,.26.09l.11-.1a1.41,1.41,0,0,0,.37.17l.22.08.23-.13c.16.08.23.17.23.26a.92.92,0,0,1,0,.15l.33.24a.76.76,0,0,1,.24.28c.1.23.16.37.18.39a.89.89,0,0,0,.18.12,4.32,4.32,0,0,0,0,.45,1,1,0,0,0,0,.32,1.11,1.11,0,0,1,0,.21.64.64,0,0,1,0,.13s0,.16-.07.37a.48.48,0,0,1-.11.23.66.66,0,0,1,0,.22.83.83,0,0,1-.16.48l-.13.21v.21l-.1.26a1.94,1.94,0,0,1-.2.45.21.21,0,0,1,.06.13.5.5,0,0,1-.14.29l-.4.49a1.11,1.11,0,0,0-.14.37,1,1,0,0,0-.26.16,3.11,3.11,0,0,0-.18.33l-.17.19-.25.38-.18.22-.26.31a.38.38,0,0,0-.07.18l-.39.33s0,.06,0,.16l-.24.15-.18.25-.38.35-.18.28a.88.88,0,0,1-.24.19l-.16,0a2.57,2.57,0,0,1-1.28.92.41.41,0,0,0-.21.11h-.26c-.1,0-.15.06-.15.18a.09.09,0,0,0,0,.08l.22.15a.4.4,0,0,0,.13.13l.29,0,.2-.06a1.48,1.48,0,0,0,.4-.23l.2-.13,0-.14a.86.86,0,0,0,.34-.11,1.89,1.89,0,0,0,.35-.33,1,1,0,0,0,.2-.4.55.55,0,0,0,.29-.13s.14-.14.36-.38l.15-.23.34-.29.2-.3.35-.4.1-.18.6-.6v-.25a.59.59,0,0,1,.09-.14.76.76,0,0,0,.11-.19l.18,0a6.06,6.06,0,0,0,.73-1.1l.06-.19s.06-.07.18-.13a1.07,1.07,0,0,1,.13-.37l.18-.28s0-.13.06-.34.18-.12.18-.18a.51.51,0,0,1,.08-.16,1.45,1.45,0,0,0,.17-.34l.21-.35.07-.2a.54.54,0,0,0,.06-.24l.18-.14-.06-.06.08-.41s0,0,0-.06a.12.12,0,0,0,0-.06c0-.15,0-.24,0-.3a.58.58,0,0,1,.08-.3A1.62,1.62,0,0,0,350.12,356.55Z"/></g><g id="_Gruppe_19" data-name="&lt;Gruppe&gt;"><g id="_Gruppe_20" data-name="&lt;Gruppe&gt;"><path id="_Kurve_5" data-name="&lt;Kurve&gt;" d="M374.17,289.46l-1.92-2c.46-.45,11.33-11,21.33-8.06a21.24,21.24,0,0,1,9.48,5.25c.26.26.5.55.74.84a6.85,6.85,0,0,0,.81.88l0,0c.5-.44.87-.76,1.25-1.07a41.34,41.34,0,0,1,3.47-2.56,24.86,24.86,0,0,1,10.29-4.22,13.7,13.7,0,0,1,5.68.37,20.64,20.64,0,0,1,9.44,5.37,17.13,17.13,0,0,1,1.21,1.43,1.72,1.72,0,0,0,.54.53s.15-.22.28-.34l.44-.42a37.15,37.15,0,0,1,3.06-2.41,24.39,24.39,0,0,1,9.93-4.42,14,14,0,0,1,6.31.31,20.44,20.44,0,0,1,9.44,5.33c.24.25.46.54.7.84a4.38,4.38,0,0,0,.95,1l.1-.1.28-.26c.83-.73,1.69-1.43,2.58-2.09a30,30,0,0,1,8.89-4.74,15.15,15.15,0,0,1,8.83-.32l5.27,1.55c5.61,1.67,10.45,3.08,11.55,3.05l.13,2.73c-1.45.11-4.89-.91-12.46-3.16l-5.26-1.55a12.43,12.43,0,0,0-7.24.31,27.22,27.22,0,0,0-8.08,4.32c-.83.61-1.63,1.26-2.4,1.94l-.22.2a2.49,2.49,0,0,1-3.06.62,5.73,5.73,0,0,1-2-1.87c-.17-.22-.34-.45-.52-.63a17.85,17.85,0,0,0-8.22-4.58,11.37,11.37,0,0,0-5.09-.23,21.74,21.74,0,0,0-8.81,4,33.57,33.57,0,0,0-2.83,2.23c-.11.09-.21.2-.31.29a2.86,2.86,0,0,1-3.21,1,4.11,4.11,0,0,1-1.72-1.41,13.66,13.66,0,0,0-1-1.2,18,18,0,0,0-8.23-4.64,11.06,11.06,0,0,0-4.55-.29,22.28,22.28,0,0,0-9.15,3.79,38.34,38.34,0,0,0-3.23,2.38c-.35.29-.7.59-1,.89-.66.59-1.78,1.6-3.39.49a7.51,7.51,0,0,1-1.54-1.53c-.18-.23-.37-.46-.57-.66a18.61,18.61,0,0,0-8.3-4.54C384.34,279.6,374.27,289.36,374.17,289.46Z"/></g></g><path d="M17.13,174.48l0,.16a3.37,3.37,0,0,0-2.16.41,3,3,0,0,0-1.41,1.89,3,3,0,0,0,0,1.64,2.86,2.86,0,0,0,.81,1.34,3.55,3.55,0,0,0,1.5.82,3.44,3.44,0,0,0,1.3.13,2.89,2.89,0,0,0,1.14-.37,6,6,0,0,0,1.06-.78q.52-.47,1.35-1.3a12.12,12.12,0,0,1,2.52-2,3.41,3.41,0,0,1,2.71-.22,3.89,3.89,0,0,1,1.7,1,3.94,3.94,0,0,1,1,1.89,5.11,5.11,0,0,1-.13,2.62,6.34,6.34,0,0,1-.66,1.57,8.77,8.77,0,0,1-1,1.28,1.77,1.77,0,0,0-.22.39.28.28,0,0,0,.07.32,4.59,4.59,0,0,0,.61.36l0,.17-3.73-1.05,0-.17a4.37,4.37,0,0,0,2.88-.72A4.13,4.13,0,0,0,28,181.51a3.53,3.53,0,0,0,.09-1.94,2.4,2.4,0,0,0-.76-1.24,3.18,3.18,0,0,0-1.14-.61,2.94,2.94,0,0,0-2.26.19,9.73,9.73,0,0,0-2.28,1.86q-.89.91-1.36,1.33a6.67,6.67,0,0,1-1.14.81,4,4,0,0,1-1.46.5,4.24,4.24,0,0,1-3.56-1.27,4.31,4.31,0,0,1-1.1-2,4.78,4.78,0,0,1,.07-2.48,6.8,6.8,0,0,1,.9-1.92,1,1,0,0,0,.2-.41q.1-.33-.33-.58l0-.16Z"/><path d="M17.15,164.23l14.05-.05a6.61,6.61,0,0,0,1.64-.17,1.58,1.58,0,0,0,.75-.4,2.72,2.72,0,0,0,.4-.67l.16.05-1.65,4.78-.16-.06a3.8,3.8,0,0,0,.25-1.18q0-.45-.62-.66a3.25,3.25,0,0,0-1-.12h-.13l-4.33,0-1.75,5.07,3.2,2.4a4.27,4.27,0,0,0,1.1.65,1,1,0,0,0,.92,0,1.66,1.66,0,0,0,.51-.8l.16.05L29.5,176.5l-.16-.05a1.84,1.84,0,0,0-.16-1.37A4.45,4.45,0,0,0,28,173.79l-11.17-8.48Zm7.18,6.2,1.61-4.66H18.17v0Z"/><path d="M26.51,141.44l.17.07a3.29,3.29,0,0,0-.16.94,1.06,1.06,0,0,0,.34.72,3.43,3.43,0,0,0,1.11.68l12.47,5.36,0,.1L23.52,155l8.75,3.76a12,12,0,0,0,1.66.61,2.06,2.06,0,0,0,.87.08,1.65,1.65,0,0,0,1.08-1l.15.07-1.53,3.56-.15-.07a2,2,0,0,0,.14-1,1.43,1.43,0,0,0-.63-.83,9.46,9.46,0,0,0-1.76-.92l-9.28-4-.73.25a4.26,4.26,0,0,0-1.33.62,3.65,3.65,0,0,0-.69.81l-.16-.07L21,154.14l16.67-5.57-9.18-3.95A11.51,11.51,0,0,0,27,144a1.45,1.45,0,0,0-1,.08,1.91,1.91,0,0,0-.81,1L25,145Z"/><path d="M27.73,139.33l-.16-.08L30.35,134A11.57,11.57,0,0,1,31.62,132,9.84,9.84,0,0,1,33,130.63a8.1,8.1,0,0,1,1.37-.91,6.8,6.8,0,0,1,1.25-.51,7.76,7.76,0,0,1,2-.35,7.65,7.65,0,0,1,2,.2,8.18,8.18,0,0,1,1.94.73A7.87,7.87,0,0,1,43.3,131a7.15,7.15,0,0,1,1.23,1.47,7.32,7.32,0,0,1,.78,1.69,8.19,8.19,0,0,1,.35,1.91,7.22,7.22,0,0,1-.16,1.85,10.07,10.07,0,0,1-1,2.44l-3.24,6.15-.15-.08.1-.19a1.21,1.21,0,0,0,0-1.21,2.07,2.07,0,0,0-.86-.85L30,138.68a2.23,2.23,0,0,0-1-.29,1.26,1.26,0,0,0-.75.19,1.48,1.48,0,0,0-.5.56Zm2-2.62,10.85,5.71a2.4,2.4,0,0,0,1.31.36,1.36,1.36,0,0,0,.91-.54,9.58,9.58,0,0,0,.94-1.52,10.48,10.48,0,0,0,1-2.66,5,5,0,0,0-.26-2.67,6.46,6.46,0,0,0-1.24-2.1,8.14,8.14,0,0,0-2.41-1.81,9.81,9.81,0,0,0-2.59-.93,7.24,7.24,0,0,0-2.68-.07,6.15,6.15,0,0,0-2.71,1.17,7.77,7.77,0,0,0-2.17,2.68A16.3,16.3,0,0,0,29.74,136.72Z"/><path d="M46.76,106.55l.15.1a2.18,2.18,0,0,0-.16.9,2.74,2.74,0,0,0,.33,1.07,9.53,9.53,0,0,0,1,1.56l8.43,10.55-.08.13-12.9-3.57,0,0L52,127.85l-.09.13-14.25-3.89a2.72,2.72,0,0,0-1.22-.1,1.52,1.52,0,0,0-.68.29,3.42,3.42,0,0,0-.46.52l-.15-.1,2.59-4,.15.1a1.39,1.39,0,0,0-.19,1,1.15,1.15,0,0,0,.53.72,3.24,3.24,0,0,0,.89.36l10.57,2.89,0,0-6.92-8.59L42.3,117a3.12,3.12,0,0,0-1.32-.1,1.78,1.78,0,0,0-1.15.83l-.15-.1,2.67-4.17.15.1a1.19,1.19,0,0,0-.22,1.15,1.57,1.57,0,0,0,.52.63,3.12,3.12,0,0,0,.88.38l10.55,2.92,0,0-6.39-8a7.11,7.11,0,0,0-.62-.72,4.11,4.11,0,0,0-.69-.58c-.4-.26-.71-.33-.92-.22a2.41,2.41,0,0,0-.73.73l-.15-.1Z"/><path d="M50.88,101.3l.14.11a1.82,1.82,0,0,0-.38,1.18,1.56,1.56,0,0,0,.75,1.15l9.47,7a1.55,1.55,0,0,0,1.35.35,1.81,1.81,0,0,0,1-.68l.13.1-2.91,4-.14-.1a1.79,1.79,0,0,0,.37-1.17,1.59,1.59,0,0,0-.77-1.17l-9.47-7a1.55,1.55,0,0,0-1.36-.39,1.92,1.92,0,0,0-1,.73l-.14-.11Z"/><path d="M63.62,90.89l-.11.14a3.31,3.31,0,0,0-2.17-.39,5.38,5.38,0,0,0-2.15.82,6.85,6.85,0,0,0-1.61,1.4,5.72,5.72,0,0,0-1.15,2.3,5.94,5.94,0,0,0,0,2.57,7.47,7.47,0,0,0,1.07,2.58,9.9,9.9,0,0,0,2.12,2.34,9.68,9.68,0,0,0,2.63,1.55,7,7,0,0,0,2.72.49,5.85,5.85,0,0,0,2.49-.6,6.14,6.14,0,0,0,2-1.66,8.11,8.11,0,0,0,1.26-2.31,6.66,6.66,0,0,0,.37-3l.46.38a12.28,12.28,0,0,1-.39,3,7.27,7.27,0,0,1-1.44,2.56,8.16,8.16,0,0,1-2.63,2.17,7.55,7.55,0,0,1-3,.84,7.88,7.88,0,0,1-3-.39,8.19,8.19,0,0,1-2.6-1.43,8.45,8.45,0,0,1-3-7.79,7.94,7.94,0,0,1,1.73-3.92,11.51,11.51,0,0,1,2.17-2l.93-.66a2.93,2.93,0,0,0,.39-.38.86.86,0,0,0,.25-.5.82.82,0,0,0-.21-.44l.11-.13Z"/><path d="M75.91,83l-3.77-3.55a1.85,1.85,0,0,0-1.18-.55,1.57,1.57,0,0,0-1.22.59l-.13-.12L73,75.76l.13.12a1.55,1.55,0,0,0-.52,1.25,1.88,1.88,0,0,0,.63,1.14l8.52,8a1.49,1.49,0,0,0,2.38,0l.12.12L80.86,90l-.12-.12a1.72,1.72,0,0,0,.54-1.19,1.65,1.65,0,0,0-.61-1.19L76.25,83.3l-6.08,6.46,4.41,4.15A1.56,1.56,0,0,0,77,93.85l.12.12-3.38,3.59-.12-.12a1.61,1.61,0,0,0,.51-1.2,1.75,1.75,0,0,0-.62-1.17L65,87a1.49,1.49,0,0,0-2.39,0l-.13-.12,3.38-3.59.13.12a1.59,1.59,0,0,0-.53,1.26,1.86,1.86,0,0,0,.63,1.15l3.77,3.55Z"/><path d="M94.54,63.62l.12.14a2.67,2.67,0,0,0-.75,1.06A2.56,2.56,0,0,0,93.84,66a10.61,10.61,0,0,0,.48,1.74q.41,1.17.61,1.91a11.31,11.31,0,0,1,.27,1.19c0,.3.08.58.1.83l1.06,0,1.65.05a7.83,7.83,0,0,0,2.15-.23,3.65,3.65,0,0,0,1.15-.62l.11.13-2.49,2.14q-2.31.09-3.53,0a9.1,9.1,0,0,1-.28,2.48,4.7,4.7,0,0,1-1.6,2.57,4.34,4.34,0,0,1-1.45.84,4.13,4.13,0,0,1-3.09-.2A3.7,3.7,0,0,1,87.82,78a4.21,4.21,0,0,1-1-2.62,9.16,9.16,0,0,1,.37-3l-.21,0a13.59,13.59,0,0,1-2.42-.52,3.58,3.58,0,0,1-1.63-1.07,3.36,3.36,0,0,1-.77-1.68,3.77,3.77,0,0,1,.2-1.94,4.08,4.08,0,0,1,1.21-1.71,3.39,3.39,0,0,1,2.34-.93,2.61,2.61,0,0,1,2,.93,3.26,3.26,0,0,1,.76,2.47A13.46,13.46,0,0,1,88,71q.81.12,2.44.26l2.2.22q1.29.13,2.22.16A15.51,15.51,0,0,0,94.14,69a7.26,7.26,0,0,0-1.2-2.38q-.42-.49-.81-.42a1.84,1.84,0,0,0-.8.4l-.12-.14Zm-7,7.32a8.48,8.48,0,0,0,.39-2.32,2.8,2.8,0,0,0-.73-1.91,2.88,2.88,0,0,0-1.09-.78,2.56,2.56,0,0,0-1.36-.18,2.44,2.44,0,0,0-1.28.59,2,2,0,0,0-.81,1.51,2.14,2.14,0,0,0,.54,1.48,3.28,3.28,0,0,0,1.13.79,8.1,8.1,0,0,0,1.6.54A14.75,14.75,0,0,0,87.52,70.94Zm.08,1.54a4.15,4.15,0,0,0,.6,4,3.32,3.32,0,0,0,1.64,1.05,3.88,3.88,0,0,0,2,.06,3.83,3.83,0,0,0,1.68-.82,3.67,3.67,0,0,0,.92-1.17,4.62,4.62,0,0,0,.42-1.22A12,12,0,0,0,95,73.19L93,73.07,91.61,73,90,72.79Z"/><path d="M106.9,51.58l-.14.1a3.36,3.36,0,0,0-1.94-1,3,3,0,0,0-2.28.59,3,3,0,0,0-1,1.26,2.87,2.87,0,0,0-.21,1.56,3.55,3.55,0,0,0,.65,1.57,3.44,3.44,0,0,0,.93.92A2.86,2.86,0,0,0,104,57a6.07,6.07,0,0,0,1.31.05q.7,0,1.86-.17a12.16,12.16,0,0,1,3.24,0,3.41,3.41,0,0,1,2.25,1.53,3.88,3.88,0,0,1,.69,1.85,4,4,0,0,1-.38,2.12,5.09,5.09,0,0,1-1.74,2,6.29,6.29,0,0,1-1.5.81,8.81,8.81,0,0,1-1.55.4,1.77,1.77,0,0,0-.41.16.28.28,0,0,0-.14.3,4.57,4.57,0,0,0,.25.66l-.15.1-2.25-3.16.15-.1a4.37,4.37,0,0,0,2.69,1.25,4.14,4.14,0,0,0,2.67-.83,3.54,3.54,0,0,0,1.28-1.45,2.39,2.39,0,0,0,.18-1.44,3.13,3.13,0,0,0-.51-1.19,3,3,0,0,0-1.88-1.27,9.7,9.7,0,0,0-2.94,0q-1.26.15-1.89.19a6.62,6.62,0,0,1-1.39-.08,4,4,0,0,1-2.69-1.7,4.13,4.13,0,0,1-.74-2,4.32,4.32,0,0,1,.41-2.26,4.78,4.78,0,0,1,1.61-1.89,6.74,6.74,0,0,1,1.91-.93,1,1,0,0,0,.42-.19c.19-.13.23-.35.11-.66l.14-.1Z"/><path d="M113.33,43.62l11,8.76a6.65,6.65,0,0,0,1.38.89,1.57,1.57,0,0,0,.84.16,2.72,2.72,0,0,0,.73-.27l.09.14L123.08,56l-.09-.14a3.82,3.82,0,0,0,.94-.76c.18-.23.16-.53-.07-.9a3.23,3.23,0,0,0-.68-.7.33.33,0,0,1-.1-.08l-3.35-2.75-4.54,2.85,1,3.88a4.32,4.32,0,0,0,.45,1.19q.35.55.74.56a1.67,1.67,0,0,0,.9-.31l.09.14-3.08,1.94-.09-.14a1.85,1.85,0,0,0,.74-1.17,4.45,4.45,0,0,0-.15-1.77l-3.39-13.61ZM115,52.95l4.17-2.62-6-4.88,0,0Z"/><path d="M128,52.8l.18-.1a1.37,1.37,0,0,0,.66-.88,1.72,1.72,0,0,0-.22-1.31L123,40.28a1.61,1.61,0,0,0-1.08-.94,2,2,0,0,0-1.21.21l-.09-.16L125,37l.09.16a2,2,0,0,0-.83.9,1.58,1.58,0,0,0,.21,1.43l5.45,9.9a1.67,1.67,0,0,0,1.12,1,2.73,2.73,0,0,0,1.63-.45l1.17-.64a3.83,3.83,0,0,0,1.12-.85,1.82,1.82,0,0,0,.41-1,6.08,6.08,0,0,0,0-1.37l.16-.09.71,2.51L128.11,53Z"/><path d="M137,30.68l9.89,10a6.53,6.53,0,0,0,1.27,1,1.56,1.56,0,0,0,.82.26,2.66,2.66,0,0,0,.76-.18l.07.15-4.57,2.17-.07-.15a3.77,3.77,0,0,0,1-.65q.32-.31,0-.9a3.23,3.23,0,0,0-.59-.78.3.3,0,0,1-.09-.1l-3-3.12-4.84,2.3.53,4a4.23,4.23,0,0,0,.31,1.24q.28.59.67.64a1.67,1.67,0,0,0,.93-.2l.07.15-3.28,1.56-.07-.15a1.84,1.84,0,0,0,.87-1.07,4.43,4.43,0,0,0,.06-1.78l-1.78-13.91Zm.61,9.47L142,38l-5.44-5.55,0,0Z"/><path d="M156.6,25.77l-.16.06q-.68-1.36-1.55-1.48a3.71,3.71,0,0,0-1.92.3l-2.85,1.16,4.88,12a1.53,1.53,0,0,0,2.2.95l.06.16-4.57,1.85-.06-.16a1.91,1.91,0,0,0,.93-.81,1.58,1.58,0,0,0,0-1.38l-4.89-12-2.85,1.16a3.67,3.67,0,0,0-1.58,1.12,2.34,2.34,0,0,0-.09,2.15l-.16.06-1.42-3.51.16-.06a2.28,2.28,0,0,0,.42.25,1.09,1.09,0,0,0,.38.08,1.72,1.72,0,0,0,.48-.06,4.58,4.58,0,0,0,.6-.21l9.29-3.77a1.81,1.81,0,0,0,1.15-1.3l.16-.06Z"/><path d="M167.65,35.19,162.16,37l-.05-.16.2-.07a1.39,1.39,0,0,0,.83-.73,1.73,1.73,0,0,0,0-1.35L159.4,23.66a1.91,1.91,0,0,0-.78-1.09,1.33,1.33,0,0,0-1.16-.09l-.18.06-.06-.17L162,20.75a5.62,5.62,0,0,1,1.84-.31,4.23,4.23,0,0,1,1.6.3,3.67,3.67,0,0,1,1.22.81,3.16,3.16,0,0,1,.75,1.23,3,3,0,0,1-.13,2.44,5.48,5.48,0,0,1-1.89,2v0a11.15,11.15,0,0,1,1.33-.22,5,5,0,0,1,1.23,0,4.32,4.32,0,0,1,1.13.34A4.05,4.05,0,0,1,170,28a3.7,3.7,0,0,1,.72.79,4.06,4.06,0,0,1,.49,1,3.47,3.47,0,0,1,.07,2.17,4.51,4.51,0,0,1-.92,1.71A6.47,6.47,0,0,1,167.65,35.19Zm-5.08-7.13,1-.32a4.43,4.43,0,0,0,1.59-.8,4,4,0,0,0,.52-.66,3,3,0,0,0,.36-1.1,3.26,3.26,0,0,0-.17-1.55,3.94,3.94,0,0,0-.63-1.18,3.4,3.4,0,0,0-1-.85,3,3,0,0,0-1.19-.4,2.92,2.92,0,0,0-1.28.14,4.91,4.91,0,0,0-1.23.66Zm1.66-.06-1.5.51,1.78,5.29a3.35,3.35,0,0,0,.4.85,1.16,1.16,0,0,0,.78.42,3.27,3.27,0,0,0,1.53-.23,3.32,3.32,0,0,0,2.43-2.31,4,4,0,0,0-.11-2.28,4,4,0,0,0-.8-1.42,3.34,3.34,0,0,0-1.19-.86A3.89,3.89,0,0,0,166,27.7,5.64,5.64,0,0,0,164.22,28Z"/><path d="M176.1,16.29,184,27.89a6.66,6.66,0,0,0,1.06,1.26,1.58,1.58,0,0,0,.76.4,2.74,2.74,0,0,0,.78,0l0,.16L181.8,31l0-.16a3.78,3.78,0,0,0,1.12-.45q.37-.25.2-.88a3.2,3.2,0,0,0-.44-.87.32.32,0,0,1-.07-.11l-2.4-3.61L175,26.3l-.19,4a4.26,4.26,0,0,0,.08,1.27q.17.63.54.75a1.66,1.66,0,0,0,.95,0l0,.16-3.51.95,0-.16a1.84,1.84,0,0,0,1-.9,4.44,4.44,0,0,0,.37-1.74l.74-14ZM175,25.71l4.76-1.29L175.41,18h0Z"/><path d="M184.6,14.52l-.21,0,0-.22,5.25-1.06a5.38,5.38,0,0,1,2.23,0,3.69,3.69,0,0,1,1.57.72,3.94,3.94,0,0,1,1,1.13,4.48,4.48,0,0,1,.48,1.28,3.86,3.86,0,0,1,0,1.65,3.48,3.48,0,0,1-.8,1.52,4.21,4.21,0,0,1-1.64,1.1v0a6.47,6.47,0,0,1,3,2.11l1.84,2a7.45,7.45,0,0,0,1.88,1.67,2.3,2.3,0,0,0,1.2.24l0,.16-2.76.56-.42-.37-.42-.38-.4-.41-.31-.31-2.42-2.63a7.77,7.77,0,0,0-1.42-1.26,4.34,4.34,0,0,0-1.23-.6,3.16,3.16,0,0,0-1-.13,6.24,6.24,0,0,0-.95.13L190.22,27a1.52,1.52,0,0,0,2,1.34l0,.17-4.83,1,0-.17a2.32,2.32,0,0,0,.77-.33,1.31,1.31,0,0,0,.48-.63,1.85,1.85,0,0,0,0-1l-2.31-11.48a1.62,1.62,0,0,0-.7-1.19A1.5,1.5,0,0,0,184.6,14.52ZM189,21.09l.87-.18a5.55,5.55,0,0,0,2.15-.84,2.61,2.61,0,0,0,1-1.37,3.76,3.76,0,0,0,0-1.86,4.53,4.53,0,0,0-.7-1.65A3.26,3.26,0,0,0,190.94,14a4,4,0,0,0-2.38-.12,4.14,4.14,0,0,0-.93.28Z"/><path d="M211.37,438.15l-.17,0a2.32,2.32,0,0,0-.54-2.08,3.69,3.69,0,0,0-1.79-.76l-3-.51-2.17,12.82a1.52,1.52,0,0,0,1.37,2l0,.17-4.86-.82,0-.17a1.91,1.91,0,0,0,1.22-.2,1.57,1.57,0,0,0,.69-1.2l2.17-12.82-3-.51a3.7,3.7,0,0,0-1.93.13q-.83.31-1.2,1.78l-.17,0,.63-3.73.17,0a2.36,2.36,0,0,0,.22.43,1.07,1.07,0,0,0,.29.27,1.69,1.69,0,0,0,.44.2,4.81,4.81,0,0,0,.62.14l9.88,1.67a1.82,1.82,0,0,0,1.66-.5l.17,0Z"/><path d="M226.33,436.6l0,.18a2.48,2.48,0,0,0-1.26.2,3.42,3.42,0,0,0-.91.57,9.92,9.92,0,0,0-.73.76l-4.13,5.07-.6,6.17a1.53,1.53,0,0,0,.38,1.29,1.91,1.91,0,0,0,1.15.55l0,.17-4.88-.48,0-.17a1.74,1.74,0,0,0,1.22-.31,1.63,1.63,0,0,0,.56-1.21l.58-5.91-3.35-6.26a4.33,4.33,0,0,0-1-1.38,2.63,2.63,0,0,0-1.31-.47l0-.18,5.47.54,0,.18a1.36,1.36,0,0,0-1.11.26,1.1,1.1,0,0,0-.3.6,2,2,0,0,0,.32,1l2.75,5.07,3.26-4a3.08,3.08,0,0,0,.79-1.41.82.82,0,0,0-.12-.57.84.84,0,0,0-.32-.3l-.37-.14,0-.18Z"/><path d="M227.35,436.77h-.21v-.22l5.36.22a5.38,5.38,0,0,1,2.17.49,3.68,3.68,0,0,1,1.36,1.07,3.91,3.91,0,0,1,.66,1.33,4.44,4.44,0,0,1,.16,1.35,3.83,3.83,0,0,1-.42,1.6,3.48,3.48,0,0,1-1.13,1.29,4.22,4.22,0,0,1-1.85.68v0a6.47,6.47,0,0,1,2.45,2.77l1.3,2.42a7.49,7.49,0,0,0,1.44,2.07,2.29,2.29,0,0,0,1.11.52v.17l-2.81-.12-.32-.46-.32-.47L236,451a3.53,3.53,0,0,0-.23-.37L234,447.51a7.73,7.73,0,0,0-1.08-1.56,4.33,4.33,0,0,0-1.05-.88,3.17,3.17,0,0,0-.9-.35,6.27,6.27,0,0,0-.95-.1l-.23,5.66a1.53,1.53,0,0,0,1.61,1.77v.17l-4.93-.2v-.17a2.36,2.36,0,0,0,.83-.14,1.31,1.31,0,0,0,.62-.5,1.85,1.85,0,0,0,.28-1l.48-11.7a1.62,1.62,0,0,0-.4-1.32A1.5,1.5,0,0,0,227.35,436.77Zm2.74,7.43.88,0a5.57,5.57,0,0,0,2.29-.31,2.62,2.62,0,0,0,1.33-1.09,3.78,3.78,0,0,0,.47-1.79,4.5,4.5,0,0,0-.29-1.76,3.25,3.25,0,0,0-1.16-1.49,4.89,4.89,0,0,0-3.25-.62Z"/><path d="M253.43,436.47v.18a7.2,7.2,0,0,0-1.14.2,2.28,2.28,0,0,0-1,.62l-.48.48-.28.27-5.07,5.42,6.58,6.87a3.87,3.87,0,0,0,1.3,1,5.2,5.2,0,0,0,1.34.25v.17l-3.34.13-7.23-7.55.23,6a1.52,1.52,0,0,0,1.73,1.64v.17l-4.9.19v-.17a2.34,2.34,0,0,0,.81-.21,1.3,1.3,0,0,0,.57-.55,1.86,1.86,0,0,0,.2-1l-.46-11.74a1.52,1.52,0,0,0-.54-1.3,2.1,2.1,0,0,0-1.17-.32V437l4.91-.19V437a1.51,1.51,0,0,0-1.59,1.75l.22,5.71,5.7-6.17s0,0,0-.06a1.22,1.22,0,0,0,.46-.8.43.43,0,0,0-.31-.45,4.61,4.61,0,0,0-.87-.12v-.18Z"/><path d="M259.6,435.85l0,.18a1.81,1.81,0,0,0-1.14.49,1.56,1.56,0,0,0-.37,1.33l1,11.7a1.55,1.55,0,0,0,.63,1.25,1.81,1.81,0,0,0,1.18.3v.17l-4.89.44,0-.17a1.8,1.8,0,0,0,1.12-.5,1.59,1.59,0,0,0,.37-1.35l-1-11.7a1.54,1.54,0,0,0-.6-1.28,1.9,1.9,0,0,0-1.19-.25l0-.18Z"/><path d="M269.19,437.67l-.17,0a3.37,3.37,0,0,0-1.23-1.83,3.25,3.25,0,0,0-3.81.07,2.85,2.85,0,0,0-.92,1.27,3.54,3.54,0,0,0-.16,1.7,3.42,3.42,0,0,0,.39,1.25,2.86,2.86,0,0,0,.79.9,6.09,6.09,0,0,0,1.13.66q.64.29,1.73.72a12,12,0,0,1,2.87,1.51,3.41,3.41,0,0,1,1.27,2.41,3.89,3.89,0,0,1-.26,2,4,4,0,0,1-1.33,1.69,5.09,5.09,0,0,1-2.46.91,6.3,6.3,0,0,1-1.71,0,8.73,8.73,0,0,1-1.55-.38,1.72,1.72,0,0,0-.44,0,.28.28,0,0,0-.27.19,4.58,4.58,0,0,0-.09.7l-.18,0-.5-3.84.18,0a4.36,4.36,0,0,0,1.79,2.36,4.12,4.12,0,0,0,2.75.52,3.54,3.54,0,0,0,1.81-.68,2.4,2.4,0,0,0,.84-1.19,3.17,3.17,0,0,0,.11-1.29,2.94,2.94,0,0,0-1.06-2,9.68,9.68,0,0,0-2.61-1.36q-1.18-.46-1.76-.72a6.79,6.79,0,0,1-1.19-.72,4.05,4.05,0,0,1-1-1.14,4.24,4.24,0,0,1-.23-3.77,4.3,4.3,0,0,1,1.42-1.8,4.76,4.76,0,0,1,2.31-.91,6.75,6.75,0,0,1,2.12.08,1,1,0,0,0,.46,0c.23,0,.37-.21.41-.53l.17,0Z"/><path d="M283.15,432.12l0,.18a7.2,7.2,0,0,0-1.1.37,2.28,2.28,0,0,0-.88.76l-.4.55-.24.31-4.21,6.11,7.53,5.82a3.87,3.87,0,0,0,1.43.78,5.25,5.25,0,0,0,1.36,0l0,.17-3.28.63-8.27-6.39,1.12,5.85a1.52,1.52,0,0,0,1.95,1.36l0,.17-4.82.92,0-.17a2.32,2.32,0,0,0,.77-.32,1.29,1.29,0,0,0,.48-.63,1.85,1.85,0,0,0,0-1L272.5,436a1.51,1.51,0,0,0-.73-1.2,2.09,2.09,0,0,0-1.21-.14l0-.18,4.82-.92,0,.18a1.51,1.51,0,0,0-1.32,2l1.07,5.62,4.72-6.95s0,0,0-.07a1.21,1.21,0,0,0,.34-.86.43.43,0,0,0-.37-.4,4.69,4.69,0,0,0-.88,0l0-.18Z"/><path d="M291.89,433l-.16,0a3.36,3.36,0,0,0-1.43-1.67A3,3,0,0,0,288,431a3,3,0,0,0-1.44.79,2.85,2.85,0,0,0-.76,1.37,3.54,3.54,0,0,0,0,1.7,3.41,3.41,0,0,0,.53,1.2,2.86,2.86,0,0,0,.89.8,6.12,6.12,0,0,0,1.2.53q.67.22,1.8.52a12.11,12.11,0,0,1,3,1.17,3.41,3.41,0,0,1,1.53,2.25,3.89,3.89,0,0,1,0,2,3.94,3.94,0,0,1-1.13,1.83,5.09,5.09,0,0,1-2.34,1.19,6.37,6.37,0,0,1-1.69.21,8.92,8.92,0,0,1-1.59-.2,1.68,1.68,0,0,0-.44,0,.28.28,0,0,0-.24.22,4.71,4.71,0,0,0,0,.71l-.17,0-.94-3.76.17,0a4.38,4.38,0,0,0,2,2.15,4.14,4.14,0,0,0,2.79.21,3.55,3.55,0,0,0,1.73-.88,2.4,2.4,0,0,0,.7-1.28,3.15,3.15,0,0,0,0-1.29,2.94,2.94,0,0,0-1.28-1.87,9.74,9.74,0,0,0-2.75-1.05c-.82-.21-1.43-.39-1.83-.52a6.73,6.73,0,0,1-1.27-.58,4,4,0,0,1-1.88-2.57,4.13,4.13,0,0,1,.06-2.17,4.32,4.32,0,0,1,1.21-2,4.77,4.77,0,0,1,2.19-1.17,6.78,6.78,0,0,1,2.11-.17,1,1,0,0,0,.46,0c.22-.05.34-.25.34-.57l.16,0Z"/><path d="M293,429.79l-.05-.17,8.83-2.68.71,2.33-.14,0q-.57-1.87-3.06-1.11l-3.09.94,2,6.73,2.72-.82a3.91,3.91,0,0,0,1.36-.7,1.35,1.35,0,0,0,.36-1.42l.15,0,1,3.36-.15,0a1.91,1.91,0,0,0-.61-.78,1.39,1.39,0,0,0-.62-.26,1.24,1.24,0,0,0-.47,0,4.63,4.63,0,0,0-.77.17l-2.85.86,1.6,5.26a2.28,2.28,0,0,0,.54,1c.24.24.63.28,1.18.11l2.2-.67a3.32,3.32,0,0,0,1.24-.63,2.06,2.06,0,0,0,.62-.89,4.06,4.06,0,0,0,.2-1.15l.14,0,.19,2.48-8.83,2.68,0-.16.2-.06a1.5,1.5,0,0,0,.81-.66,1.62,1.62,0,0,0,.07-1.38L295.08,431a2.34,2.34,0,0,0-.67-1.09,1.21,1.21,0,0,0-1.23-.18Z"/><path d="M309.76,424.4l-.07-.16,5.49-2.31a11.42,11.42,0,0,1,2.21-.69,9.75,9.75,0,0,1,2-.2,8,8,0,0,1,1.64.16,6.83,6.83,0,0,1,1.29.4,7.78,7.78,0,0,1,1.79,1,7.68,7.68,0,0,1,1.45,1.45,8.21,8.21,0,0,1,1,1.8,7.86,7.86,0,0,1,.55,2,7.11,7.11,0,0,1,0,1.91,7.23,7.23,0,0,1-.47,1.8,8.1,8.1,0,0,1-.95,1.7,7.18,7.18,0,0,1-1.3,1.32,10,10,0,0,1-2.31,1.27l-6.41,2.69-.07-.16.19-.08a1.21,1.21,0,0,0,.79-.92,2.07,2.07,0,0,0-.12-1.21L312,425.37a2.26,2.26,0,0,0-.56-.84,1.26,1.26,0,0,0-.7-.33,1.49,1.49,0,0,0-.74.12Zm3.21-.74L317.72,435a2.4,2.4,0,0,0,.78,1.11,1.36,1.36,0,0,0,1,.16,9.46,9.46,0,0,0,1.7-.58,10.46,10.46,0,0,0,2.49-1.4,5.07,5.07,0,0,0,1.49-2.23,6.48,6.48,0,0,0,.38-2.42,8.16,8.16,0,0,0-.71-2.93,9.81,9.81,0,0,0-1.41-2.36,7.23,7.23,0,0,0-2-1.75,6.11,6.11,0,0,0-2.84-.83,7.76,7.76,0,0,0-3.38.69A16.56,16.56,0,0,0,313,423.66Z"/><path d="M324.79,417.94l-.08-.16,8.25-4.14,1.09,2.18-.13.07q-.88-1.75-3.21-.58l-2.88,1.45L331,423l2.54-1.27a3.89,3.89,0,0,0,1.22-.92,1.35,1.35,0,0,0,.12-1.46l.14-.07,1.58,3.14-.14.07a1.9,1.9,0,0,0-.73-.66,1.39,1.39,0,0,0-.66-.15,1.22,1.22,0,0,0-.46.11,4.7,4.7,0,0,0-.73.3l-2.66,1.33,2.46,4.91a2.28,2.28,0,0,0,.69.85q.41.3,1.18-.09l2.06-1a3.33,3.33,0,0,0,1.11-.83,2,2,0,0,0,.46-1,4,4,0,0,0,0-1.16l.13-.07.61,2.41-8.25,4.14-.08-.15.19-.09a1.5,1.5,0,0,0,.69-.79,1.62,1.62,0,0,0-.16-1.38l-5.23-10.43a2.33,2.33,0,0,0-.84-1,1.2,1.2,0,0,0-1.24,0Z"/><path d="M341.87,426.25l.18-.11a1.36,1.36,0,0,0,.65-.88,1.72,1.72,0,0,0-.24-1.31l-5.78-10.16a1.61,1.61,0,0,0-1.09-.93,2,2,0,0,0-1.21.23l-.09-.16,4.3-2.45.09.16a2,2,0,0,0-.81.91,1.58,1.58,0,0,0,.23,1.43l5.59,9.82a1.67,1.67,0,0,0,1.13,1,2.74,2.74,0,0,0,1.63-.48l1.16-.66a3.82,3.82,0,0,0,1.11-.87,1.82,1.82,0,0,0,.4-1,6,6,0,0,0-.06-1.37l.16-.09.75,2.5-8,4.56Z"/><path d="M347.54,405.08l.09.15a1.82,1.82,0,0,0-.79,1,1.57,1.57,0,0,0,.28,1.35l6.23,10a1.55,1.55,0,0,0,1.13.83,1.82,1.82,0,0,0,1.19-.27l.09.14-4.16,2.6-.09-.14a1.8,1.8,0,0,0,.78-1,1.58,1.58,0,0,0-.28-1.37l-6.23-10a1.54,1.54,0,0,0-1.12-.86,1.91,1.91,0,0,0-1.17.31l-.09-.15Z"/><path d="M359.13,397.14l.1.15a7.18,7.18,0,0,0-.85.79,2.26,2.26,0,0,0-.49,1c-.07.33-.12.55-.14.66l-.09.38-1.34,7.29,9.25,2.23a3.89,3.89,0,0,0,1.62.13,5.27,5.27,0,0,0,1.26-.51l.1.14-2.74,1.91-10.16-2.46,3.41,4.89a1.51,1.51,0,0,0,2.33.45l.1.14-4,2.81-.1-.14a2.36,2.36,0,0,0,.57-.61,1.31,1.31,0,0,0,.19-.77,1.86,1.86,0,0,0-.38-1L351,405.08a1.51,1.51,0,0,0-1.16-.8,2.09,2.09,0,0,0-1.16.37l-.1-.15,4-2.81.1.15a1.5,1.5,0,0,0-.4,2.33l3.27,4.69,1.47-8.27s0,0,0-.08a1.21,1.21,0,0,0,0-.92.43.43,0,0,0-.5-.21,4.41,4.41,0,0,0-.8.37l-.1-.15Z"/><path d="M365.45,391.86l11.94,7.4a6.46,6.46,0,0,0,1.48.72,1.57,1.57,0,0,0,.85.06,2.69,2.69,0,0,0,.69-.35l.11.13L376.59,403l-.11-.13a3.79,3.79,0,0,0,.84-.87q.24-.38-.17-.89a3.19,3.19,0,0,0-.76-.62.34.34,0,0,1-.11-.07l-3.65-2.33-4.17,3.37,1.44,3.73a4.28,4.28,0,0,0,.59,1.13,1,1,0,0,0,.8.47,1.68,1.68,0,0,0,.86-.41l.11.13-2.83,2.29-.11-.13a1.84,1.84,0,0,0,.59-1.25,4.44,4.44,0,0,0-.36-1.74l-5-13.11Zm2.8,9.06,3.83-3.1-6.58-4.13,0,0Z"/><path d="M381.84,381.68l-.12.11a2.31,2.31,0,0,0-2-.85,3.71,3.71,0,0,0-1.7.95L375.77,384l8.79,9.58a1.53,1.53,0,0,0,2.39.12l.11.12-3.63,3.33-.11-.12a1.91,1.91,0,0,0,.59-1.09,1.58,1.58,0,0,0-.52-1.28l-8.79-9.58-2.27,2.08a3.68,3.68,0,0,0-1.09,1.6,2.34,2.34,0,0,0,.67,2l-.12.11-2.56-2.79.12-.11a2.36,2.36,0,0,0,.48.09,1.07,1.07,0,0,0,.39-.06,1.73,1.73,0,0,0,.43-.22,4.66,4.66,0,0,0,.49-.4l7.39-6.78a1.81,1.81,0,0,0,.63-1.62l.12-.11Z"/><path d="M380.43,379l-.13-.12,6.41-6.64,1.75,1.69-.1.11q-1.41-1.36-3.22.52l-2.24,2.32,5.06,4.88,2-2a3.91,3.91,0,0,0,.85-1.27,1.35,1.35,0,0,0-.37-1.41l.11-.11,2.53,2.44-.11.11a1.9,1.9,0,0,0-.91-.38,1.4,1.4,0,0,0-.67.08,1.26,1.26,0,0,0-.39.26,4.82,4.82,0,0,0-.59.52l-2.07,2.14,4,3.82a2.29,2.29,0,0,0,.94.57q.49.15,1.09-.48l1.6-1.66a3.31,3.31,0,0,0,.78-1.15,2,2,0,0,0,.1-1.08,4,4,0,0,0-.39-1.1l.1-.11,1.37,2.07-6.41,6.64-.12-.12.15-.15a1.5,1.5,0,0,0,.38-1,1.62,1.62,0,0,0-.61-1.25l-8.39-8.1a2.35,2.35,0,0,0-1.12-.63,1.2,1.2,0,0,0-1.16.44Z"/><path d="M395.17,367.11l-.11.13a3.37,3.37,0,0,0-2.13-.55,3,3,0,0,0-2.09,1.1,3,3,0,0,0-.73,1.47,2.88,2.88,0,0,0,.16,1.56,3.55,3.55,0,0,0,1,1.38,3.42,3.42,0,0,0,1.12.68,2.85,2.85,0,0,0,1.19.15,6,6,0,0,0,1.29-.26q.67-.21,1.77-.6a12.06,12.06,0,0,1,3.15-.77,3.41,3.41,0,0,1,2.54,1,3.89,3.89,0,0,1,1.1,1.64,4,4,0,0,1,.13,2.15,5.07,5.07,0,0,1-1.24,2.31,6.36,6.36,0,0,1-1.27,1.14,8.85,8.85,0,0,1-1.41.75,1.69,1.69,0,0,0-.36.25.28.28,0,0,0-.07.32,4.59,4.59,0,0,0,.39.59l-.12.13-2.92-2.55.12-.13a4.37,4.37,0,0,0,2.91.58,4.12,4.12,0,0,0,2.41-1.43,3.53,3.53,0,0,0,.91-1.71,2.41,2.41,0,0,0-.16-1.45,3.18,3.18,0,0,0-.77-1,3,3,0,0,0-2.12-.8,9.7,9.7,0,0,0-2.86.71q-1.19.44-1.8.62a6.64,6.64,0,0,1-1.37.25,4,4,0,0,1-3-1,4.13,4.13,0,0,1-1.2-1.81,4.31,4.31,0,0,1-.13-2.29,4.77,4.77,0,0,1,1.13-2.21,6.75,6.75,0,0,1,1.64-1.35,1,1,0,0,0,.36-.29c.15-.17.14-.4,0-.67l.11-.13Z"/><path d="M401.39,359.34l-.1.13a3.37,3.37,0,0,0-2.16-.45,3,3,0,0,0-2,1.2,3,3,0,0,0-.65,1.5,2.87,2.87,0,0,0,.23,1.55,3.54,3.54,0,0,0,1.07,1.33,3.46,3.46,0,0,0,1.15.62,2.88,2.88,0,0,0,1.19.09,6.14,6.14,0,0,0,1.27-.32c.44-.16,1-.39,1.74-.69a12.05,12.05,0,0,1,3.1-.92,3.41,3.41,0,0,1,2.59.84,3.89,3.89,0,0,1,1.18,1.58,4,4,0,0,1,.23,2.14,5.08,5.08,0,0,1-1.12,2.37,6.31,6.31,0,0,1-1.21,1.2,8.88,8.88,0,0,1-1.37.82,1.75,1.75,0,0,0-.35.27.28.28,0,0,0-.05.32,4.66,4.66,0,0,0,.42.57l-.11.14-3-2.41.11-.14a4.37,4.37,0,0,0,2.93.44,4.12,4.12,0,0,0,2.33-1.54,3.54,3.54,0,0,0,.82-1.75,2.4,2.4,0,0,0-.23-1.44,3.18,3.18,0,0,0-.82-1,2.94,2.94,0,0,0-2.16-.7,9.7,9.7,0,0,0-2.82.85q-1.17.5-1.77.71a6.7,6.7,0,0,1-1.36.31,4,4,0,0,1-3.06-.88,4.13,4.13,0,0,1-1.28-1.75,4.32,4.32,0,0,1-.24-2.28,4.77,4.77,0,0,1,1-2.26,6.79,6.79,0,0,1,1.57-1.43,1,1,0,0,0,.35-.3c.14-.18.12-.4-.08-.66l.1-.13Z"/><path d="M400.32,356.15l-.15-.1,5.35-7.52,2,1.41-.08.12q-1.59-1.13-3.1,1l-1.87,2.63,5.73,4.07,1.65-2.31a3.89,3.89,0,0,0,.65-1.38,1.35,1.35,0,0,0-.58-1.34l.09-.13,2.86,2-.09.13a1.9,1.9,0,0,0-1-.24,1.4,1.4,0,0,0-.65.18,1.24,1.24,0,0,0-.35.31,4.72,4.72,0,0,0-.51.6L408.57,358l4.48,3.18a2.27,2.27,0,0,0,1,.43q.51.07,1-.63l1.33-1.88a3.33,3.33,0,0,0,.59-1.25,2.07,2.07,0,0,0-.06-1.08,4,4,0,0,0-.55-1l.08-.12,1.67,1.84L412.8,365l-.14-.1.12-.17a1.5,1.5,0,0,0,.23-1,1.62,1.62,0,0,0-.79-1.14l-9.51-6.76a2.35,2.35,0,0,0-1.2-.46,1.2,1.2,0,0,0-1.08.61Z"/><path d="M406.63,347.36l-.11.18-.19-.12,2.83-4.55a5.35,5.35,0,0,1,1.5-1.65,3.68,3.68,0,0,1,1.6-.65,4,4,0,0,1,1.48.08,4.5,4.5,0,0,1,1.25.53,3.86,3.86,0,0,1,1.18,1.15,3.47,3.47,0,0,1,.56,1.62,4.18,4.18,0,0,1-.32,1.95l0,0a6.48,6.48,0,0,1,3.62-.76l2.75.06a7.41,7.41,0,0,0,2.51-.23,2.28,2.28,0,0,0,1-.71l.14.09L425,346.77l-.56,0-.57,0h-.57l-.44,0-3.57,0a7.78,7.78,0,0,0-1.89.16,4.41,4.41,0,0,0-1.28.48,3.13,3.13,0,0,0-.75.61,6.35,6.35,0,0,0-.56.77l4.81,3a1.52,1.52,0,0,0,2.33-.53l.14.09-2.61,4.18-.14-.09a2.33,2.33,0,0,0,.29-.79,1.31,1.31,0,0,0-.13-.78,1.86,1.86,0,0,0-.73-.73L408.82,347a1.63,1.63,0,0,0-1.35-.3A1.5,1.5,0,0,0,406.63,347.36Zm7.81,1.29.47-.75a5.59,5.59,0,0,0,.87-2.14,2.62,2.62,0,0,0-.29-1.7,3.8,3.8,0,0,0-1.33-1.3,4.48,4.48,0,0,0-1.67-.62,3.26,3.26,0,0,0-1.86.27,4.89,4.89,0,0,0-2.15,2.52Z"/></svg>