<svg xmlns="http://www.w3.org/2000/svg" viewBox="0 0 22.68 16.2">
  <defs>
    <style>
      .cls-1 {
        fill: #eaae48;
      }
    </style>
  </defs>
  <g id="close-envelope" transform="translate(0 -2)">
    <g id="Group_40" data-name="Group 40" transform="translate(0 2)">
      <path id="Path_33" data-name="Path 33" class="cls-1" d="M11.144,9.94,8.338,7.484.316,14.361a1.642,1.642,0,0,0,1.119.439H20.853a1.63,1.63,0,0,0,1.115-.439L13.95,7.484Z" transform="translate(0.196 1.4)"/>
      <path id="Path_34" data-name="Path 34" class="cls-1" d="M21.971,2.439A1.632,1.632,0,0,0,20.852,2H1.434a1.625,1.625,0,0,0-1.116.442L11.143,11.72Z" transform="translate(0.197 -2)"/>
      <path id="Path_35" data-name="Path 35" class="cls-1" d="M0,2.878V16.337L7.829,9.684Z" transform="translate(0 -1.456)"/>
      <path id="Path_36" data-name="Path 36" class="cls-1" d="M9.167,9.685,17,16.339V2.875Z" transform="translate(5.684 -1.457)"/>
    </g>
  </g>
</svg>
