<svg xmlns="http://www.w3.org/2000/svg" viewBox="0 0 22.15 22.151">
  <defs>
    <style>
      .cls-1 {
        fill: #eaae48;
      }
    </style>
  </defs>
  <g id="telephone" transform="translate(-0.006)">
    <g id="Group_39" data-name="Group 39" transform="translate(0.006)">
      <path id="Path_30" data-name="Path 30" class="cls-1" d="M16.846,58.664a1.552,1.552,0,0,0-2.346,0c-.549.544-1.1,1.088-1.636,1.641a.323.323,0,0,1-.452.083c-.355-.194-.733-.35-1.074-.562a17.016,17.016,0,0,1-4.1-3.734,9.719,9.719,0,0,1-1.47-2.355.337.337,0,0,1,.083-.433c.549-.53,1.083-1.074,1.622-1.618a1.558,1.558,0,0,0,0-2.4c-.429-.433-.857-.857-1.286-1.291s-.88-.89-1.327-1.327a1.562,1.562,0,0,0-2.346,0c-.553.544-1.083,1.1-1.646,1.636a2.671,2.671,0,0,0-.839,1.8A7.636,7.636,0,0,0,.612,53.4a19.97,19.97,0,0,0,3.545,5.9,21.935,21.935,0,0,0,7.264,5.683,10.506,10.506,0,0,0,4.024,1.171,2.949,2.949,0,0,0,2.531-.963c.47-.525,1-1,1.5-1.507a1.568,1.568,0,0,0,.009-2.388Q18.169,59.975,16.846,58.664Z" transform="translate(-0.006 -44.011)"/>
      <path id="Path_31" data-name="Path 31" class="cls-1" d="M242.85,102.554l1.7-.29A7.635,7.635,0,0,0,238.094,96l-.24,1.71a5.9,5.9,0,0,1,5,4.844Z" transform="translate(-226.891 -91.575)"/>
      <path id="Path_32" data-name="Path 32" class="cls-1" d="M250.184,3.586A12.541,12.541,0,0,0,242.994,0l-.24,1.71a10.943,10.943,0,0,1,9.26,8.974l1.7-.29A12.633,12.633,0,0,0,250.184,3.586Z" transform="translate(-231.565)"/>
    </g>
  </g>
</svg>
